%TF.GenerationSoftware,KiCad,Pcbnew,9.0.6-9.0.6~ubuntu24.04.1*%
%TF.CreationDate,2025-12-20T09:10:33-05:00*%
%TF.ProjectId,gps_audio,6770735f-6175-4646-996f-2e6b69636164,rev?*%
%TF.SameCoordinates,Original*%
%TF.FileFunction,Legend,Bot*%
%TF.FilePolarity,Positive*%
%FSLAX46Y46*%
G04 Gerber Fmt 4.6, Leading zero omitted, Abs format (unit mm)*
G04 Created by KiCad (PCBNEW 9.0.6-9.0.6~ubuntu24.04.1) date 2025-12-20 09:10:33*
%MOMM*%
%LPD*%
G01*
G04 APERTURE LIST*
%ADD10C,0.150000*%
G04 APERTURE END LIST*
D10*
X103442894Y-90459819D02*
X103442894Y-89459819D01*
X103442894Y-89459819D02*
X103204799Y-89459819D01*
X103204799Y-89459819D02*
X103061942Y-89507438D01*
X103061942Y-89507438D02*
X102966704Y-89602676D01*
X102966704Y-89602676D02*
X102919085Y-89697914D01*
X102919085Y-89697914D02*
X102871466Y-89888390D01*
X102871466Y-89888390D02*
X102871466Y-90031247D01*
X102871466Y-90031247D02*
X102919085Y-90221723D01*
X102919085Y-90221723D02*
X102966704Y-90316961D01*
X102966704Y-90316961D02*
X103061942Y-90412200D01*
X103061942Y-90412200D02*
X103204799Y-90459819D01*
X103204799Y-90459819D02*
X103442894Y-90459819D01*
X102252418Y-89459819D02*
X102157180Y-89459819D01*
X102157180Y-89459819D02*
X102061942Y-89507438D01*
X102061942Y-89507438D02*
X102014323Y-89555057D01*
X102014323Y-89555057D02*
X101966704Y-89650295D01*
X101966704Y-89650295D02*
X101919085Y-89840771D01*
X101919085Y-89840771D02*
X101919085Y-90078866D01*
X101919085Y-90078866D02*
X101966704Y-90269342D01*
X101966704Y-90269342D02*
X102014323Y-90364580D01*
X102014323Y-90364580D02*
X102061942Y-90412200D01*
X102061942Y-90412200D02*
X102157180Y-90459819D01*
X102157180Y-90459819D02*
X102252418Y-90459819D01*
X102252418Y-90459819D02*
X102347656Y-90412200D01*
X102347656Y-90412200D02*
X102395275Y-90364580D01*
X102395275Y-90364580D02*
X102442894Y-90269342D01*
X102442894Y-90269342D02*
X102490513Y-90078866D01*
X102490513Y-90078866D02*
X102490513Y-89840771D01*
X102490513Y-89840771D02*
X102442894Y-89650295D01*
X102442894Y-89650295D02*
X102395275Y-89555057D01*
X102395275Y-89555057D02*
X102347656Y-89507438D01*
X102347656Y-89507438D02*
X102252418Y-89459819D01*
M02*
