M48
; DRILL file {KiCad 9.0.6-9.0.6~ubuntu24.04.1} date 2025-12-20T09:10:37-0500
; FORMAT={-:-/ absolute / metric / decimal}
; #@! TF.CreationDate,2025-12-20T09:10:37-05:00
; #@! TF.GenerationSoftware,Kicad,Pcbnew,9.0.6-9.0.6~ubuntu24.04.1
; #@! TF.FileFunction,Plated,1,2,PTH
FMAT,2
METRIC
; #@! TA.AperFunction,Plated,PTH,ViaDrill
T1C0.300
; #@! TA.AperFunction,Plated,PTH,ComponentDrill
T2C0.800
; #@! TA.AperFunction,Plated,PTH,ComponentDrill
T3C1.016
; #@! TA.AperFunction,Plated,PTH,ComponentDrill
T4C1.092
; #@! TA.AperFunction,Plated,PTH,ComponentDrill
T5C1.143
; #@! TA.AperFunction,Plated,PTH,ComponentDrill
T6C2.921
%
G90
G05
T1
X103.505Y-82.55
T2
X124.46Y-64.77
X126.96Y-64.77
X127.005Y-78.105
X127.005Y-80.645
X127.005Y-83.185
X127.005Y-85.725
X128.27Y-92.075
X128.945Y-71.755
X130.81Y-94.615
X133.35Y-92.075
X133.945Y-71.755
X134.62Y-64.77
X134.625Y-78.105
X134.625Y-80.645
X134.625Y-83.185
X134.625Y-85.725
X139.62Y-64.77
X140.97Y-90.17
X144.145Y-64.77
X144.145Y-95.25
X146.645Y-64.77
X149.145Y-95.25
X151.13Y-90.17
T3
X82.385Y-71.59
X82.385Y-91.91
X84.925Y-71.59
X84.925Y-91.91
X87.465Y-71.59
X87.465Y-91.91
X90.005Y-71.59
X90.005Y-91.91
X92.545Y-71.59
X92.545Y-91.91
X95.085Y-71.59
X95.085Y-91.91
X97.625Y-71.59
X97.625Y-91.91
X100.165Y-71.59
X100.165Y-91.91
X102.705Y-71.59
X102.705Y-91.91
X105.245Y-71.59
X105.245Y-91.91
X107.785Y-71.59
X107.785Y-91.91
X110.325Y-71.59
X110.325Y-91.91
X112.865Y-71.59
X112.865Y-91.91
X115.405Y-71.59
X115.405Y-91.91
T4
X142.265Y-78.74
X149.86Y-78.74
T5
X76.517Y-76.835
X76.517Y-79.375
X76.517Y-81.915
X76.517Y-84.455
X76.517Y-86.995
T6
X54.927Y-72.263
M30
