%TF.GenerationSoftware,KiCad,Pcbnew,9.0.4-9.0.4-0~ubuntu24.04.1*%
%TF.CreationDate,2025-09-19T08:06:19-04:00*%
%TF.ProjectId,car-control,6361722d-636f-46e7-9472-6f6c2e6b6963,rev?*%
%TF.SameCoordinates,Original*%
%TF.FileFunction,Soldermask,Bot*%
%TF.FilePolarity,Negative*%
%FSLAX46Y46*%
G04 Gerber Fmt 4.6, Leading zero omitted, Abs format (unit mm)*
G04 Created by KiCad (PCBNEW 9.0.4-9.0.4-0~ubuntu24.04.1) date 2025-09-19 08:06:19*
%MOMM*%
%LPD*%
G01*
G04 APERTURE LIST*
%ADD10R,1.700000X1.700000*%
%ADD11C,1.700000*%
%ADD12C,3.810000*%
%ADD13C,5.334000*%
%ADD14C,4.000000*%
%ADD15C,2.200000*%
%ADD16C,1.600000*%
%ADD17C,1.650000*%
%ADD18R,2.500000X2.500000*%
%ADD19R,1.800000X1.800000*%
%ADD20C,1.800000*%
%ADD21C,0.914400*%
%ADD22O,1.854200X0.863600*%
%ADD23C,2.311400*%
%ADD24C,1.422400*%
%ADD25C,1.727200*%
%ADD26R,1.727200X1.727200*%
G04 APERTURE END LIST*
D10*
%TO.C,U1*%
X102347500Y-60564500D03*
D11*
X99807500Y-60564500D03*
X102347500Y-63104500D03*
X99807500Y-63104500D03*
X102347500Y-65644500D03*
X99807500Y-65644500D03*
X102347500Y-68184500D03*
X99807500Y-68184500D03*
X102347500Y-70724500D03*
X99807500Y-70724500D03*
X102347500Y-73264500D03*
X99807500Y-73264500D03*
X102347500Y-75804500D03*
X99807500Y-75804500D03*
X102347500Y-78344500D03*
X99807500Y-78344500D03*
D12*
X100061500Y-55484500D03*
X100061500Y-84059500D03*
X194905100Y-55484500D03*
X194905100Y-84059500D03*
%TD*%
D10*
%TO.C,JP1*%
X182245000Y-61595000D03*
D11*
X184785000Y-61595000D03*
X187325000Y-61595000D03*
%TD*%
D13*
%TO.C,H2*%
X78105000Y-86360000D03*
%TD*%
%TO.C,H4*%
X243205000Y-86360000D03*
%TD*%
D11*
%TO.C,SW2*%
X223520000Y-59690000D03*
D14*
X228600000Y-59690000D03*
D11*
X233680000Y-59690000D03*
D15*
X231140000Y-54610000D03*
X224790000Y-57150000D03*
%TD*%
D16*
%TO.C,SW5*%
X89360000Y-62230000D03*
X87360000Y-62230000D03*
X85360000Y-62230000D03*
X83360000Y-62230000D03*
D17*
X83860000Y-76730000D03*
X88860000Y-76730000D03*
X86360000Y-76730000D03*
D18*
X80860000Y-69230000D03*
X91860000Y-69230000D03*
%TD*%
D11*
%TO.C,SW1*%
X204470000Y-59690000D03*
D14*
X209550000Y-59690000D03*
D11*
X214630000Y-59690000D03*
D15*
X212090000Y-54610000D03*
X205740000Y-57150000D03*
%TD*%
D11*
%TO.C,SW3*%
X204470000Y-78740000D03*
D14*
X209550000Y-78740000D03*
D11*
X214630000Y-78740000D03*
D15*
X212090000Y-73660000D03*
X205740000Y-76200000D03*
%TD*%
D13*
%TO.C,H3*%
X243205000Y-52705000D03*
%TD*%
D19*
%TO.C,D1*%
X84100000Y-52705000D03*
D20*
X86640000Y-52705000D03*
%TD*%
D13*
%TO.C,H1*%
X78105000Y-52705000D03*
%TD*%
D11*
%TO.C,SW4*%
X223520000Y-78740000D03*
D14*
X228600000Y-78740000D03*
D11*
X233680000Y-78740000D03*
D15*
X231140000Y-73660000D03*
X224790000Y-76200000D03*
%TD*%
D19*
%TO.C,D2*%
X91090000Y-52705000D03*
D20*
X93630000Y-52705000D03*
%TD*%
D21*
%TO.C,J1*%
X243205000Y-67885000D03*
X242205000Y-68535001D03*
X243205000Y-69185000D03*
X242205000Y-69834999D03*
X243205000Y-70485000D03*
D22*
X242985001Y-65610001D03*
X242985001Y-72759999D03*
%TD*%
D10*
%TO.C,J4*%
X180477000Y-81686000D03*
D11*
X183017000Y-81686000D03*
X185557000Y-81686000D03*
X188097000Y-81686000D03*
%TD*%
D10*
%TO.C,J2*%
X168910000Y-55880000D03*
D11*
X171450000Y-55880000D03*
X173990000Y-55880000D03*
X176530000Y-55880000D03*
X179070000Y-55880000D03*
X181610000Y-55880000D03*
%TD*%
D23*
%TO.C,J3*%
X222364300Y-67767200D03*
X235496100Y-67767200D03*
D24*
X225425000Y-70485000D03*
X227926900Y-70485000D03*
X229933500Y-70485000D03*
X232435400Y-70485000D03*
%TD*%
D15*
%TO.C,A1*%
X173554800Y-83910000D03*
X173554800Y-63410000D03*
X116554800Y-83910000D03*
X116554800Y-63410000D03*
D25*
X148590000Y-63500000D03*
X153670000Y-63500000D03*
X151130000Y-83820000D03*
X148590000Y-83820000D03*
X146050000Y-83820000D03*
X143510000Y-83820000D03*
X140970000Y-83820000D03*
X138430000Y-83820000D03*
X135890000Y-83820000D03*
X153670000Y-83820000D03*
X133350000Y-83820000D03*
X130810000Y-83820000D03*
X128270000Y-83820000D03*
X125730000Y-83820000D03*
X123190000Y-83820000D03*
X120650000Y-83820000D03*
X120650000Y-63500000D03*
X123190000Y-63500000D03*
X125730000Y-63500000D03*
X128270000Y-63500000D03*
X130810000Y-63500000D03*
X133350000Y-63500000D03*
X135890000Y-63500000D03*
X138430000Y-63500000D03*
X140970000Y-63500000D03*
D26*
X146050000Y-63500000D03*
D25*
X143510000Y-63500000D03*
X151130000Y-63500000D03*
%TD*%
M02*
