M48
; DRILL file {KiCad 9.0.4-9.0.4-0~ubuntu24.04.1} date 2025-09-19T08:06:22-0400
; FORMAT={-:-/ absolute / metric / decimal}
; #@! TF.CreationDate,2025-09-19T08:06:22-04:00
; #@! TF.GenerationSoftware,Kicad,Pcbnew,9.0.4-9.0.4-0~ubuntu24.04.1
; #@! TF.FileFunction,Plated,1,2,PTH
FMAT,2
METRIC
; #@! TA.AperFunction,Plated,PTH,ComponentDrill
T1C0.356
; #@! TA.AperFunction,Plated,PTH,ViaDrill
T2C0.406
; #@! TA.AperFunction,Plated,PTH,ComponentDrill
T3C0.406
; #@! TA.AperFunction,Plated,PTH,ComponentDrill
T4C0.900
; #@! TA.AperFunction,Plated,PTH,ComponentDrill
T5C0.914
; #@! TA.AperFunction,Plated,PTH,ComponentDrill
T6C1.000
; #@! TA.AperFunction,Plated,PTH,ComponentDrill
T7C1.016
; #@! TA.AperFunction,Plated,PTH,ComponentDrill
T8C1.100
; #@! TA.AperFunction,Plated,PTH,ComponentDrill
T9C1.500
; #@! TA.AperFunction,Plated,PTH,ComponentDrill
T10C2.200
; #@! TA.AperFunction,Plated,PTH,ComponentDrill
T11C3.175
; #@! TA.AperFunction,Plated,PTH,ComponentDrill
T12C3.251
%
G90
G05
T2
X81.28Y-80.645
X85.725Y-66.675
X87.63Y-79.934
X119.38Y-76.835
X120.65Y-67.31
X123.19Y-78.105
X125.095Y-79.375
X125.73Y-69.85
X125.73Y-80.645
X128.27Y-67.945
X132.08Y-54.61
X132.08Y-71.12
X133.35Y-73.025
X135.89Y-71.755
X137.16Y-50.8
X139.7Y-52.705
X144.78Y-57.785
X149.937Y-57.227
X157.48Y-56.515
X186.436Y-67.564
X187.706Y-66.421
X219.71Y-87.376
X219.837Y-76.327
T3
X242.205Y-68.535
X242.205Y-69.835
X243.205Y-67.885
X243.205Y-69.185
X243.205Y-70.485
T4
X84.1Y-52.705
X86.64Y-52.705
X91.09Y-52.705
X93.63Y-52.705
T5
X225.425Y-70.485
X227.927Y-70.485
X229.933Y-70.485
X232.435Y-70.485
T6
X83.36Y-62.23
X85.36Y-62.23
X87.36Y-62.23
X89.36Y-62.23
X99.807Y-60.564
X99.807Y-63.104
X99.807Y-65.644
X99.807Y-68.184
X99.807Y-70.724
X99.807Y-73.264
X99.807Y-75.804
X99.807Y-78.344
X102.347Y-60.564
X102.347Y-63.104
X102.347Y-65.644
X102.347Y-68.184
X102.347Y-70.724
X102.347Y-73.264
X102.347Y-75.804
X102.347Y-78.344
X168.91Y-55.88
X171.45Y-55.88
X173.99Y-55.88
X176.53Y-55.88
X179.07Y-55.88
X180.477Y-81.686
X181.61Y-55.88
X182.245Y-61.595
X183.017Y-81.686
X184.785Y-61.595
X185.557Y-81.686
X187.325Y-61.595
X188.097Y-81.686
T7
X120.65Y-63.5
X120.65Y-83.82
X123.19Y-63.5
X123.19Y-83.82
X125.73Y-63.5
X125.73Y-83.82
X128.27Y-63.5
X128.27Y-83.82
X130.81Y-63.5
X130.81Y-83.82
X133.35Y-63.5
X133.35Y-83.82
X135.89Y-63.5
X135.89Y-83.82
X138.43Y-63.5
X138.43Y-83.82
X140.97Y-63.5
X140.97Y-83.82
X143.51Y-63.5
X143.51Y-83.82
X146.05Y-63.5
X146.05Y-83.82
X148.59Y-63.5
X148.59Y-83.82
X151.13Y-63.5
X151.13Y-83.82
X153.67Y-63.5
X153.67Y-83.82
T8
X83.86Y-76.73
X86.36Y-76.73
X88.86Y-76.73
T9
X205.74Y-57.15
X205.74Y-76.2
X212.09Y-54.61
X212.09Y-73.66
X224.79Y-57.15
X224.79Y-76.2
X231.14Y-54.61
X231.14Y-73.66
T10
X80.86Y-69.23
X91.86Y-69.23
T11
X100.061Y-55.484
X100.061Y-84.059
X194.905Y-55.484
X194.905Y-84.059
T12
X78.105Y-52.705
X78.105Y-86.36
X243.205Y-52.705
X243.205Y-86.36
T1
G00X242.49Y-65.61
M15
G01X243.48Y-65.61
M16
G05
G00X242.49Y-72.76
M15
G01X243.48Y-72.76
M16
G05
M30
