%TF.GenerationSoftware,KiCad,Pcbnew,9.0.4-9.0.4-0~ubuntu24.04.1*%
%TF.CreationDate,2025-09-22T11:21:34-04:00*%
%TF.ProjectId,car-control,6361722d-636f-46e7-9472-6f6c2e6b6963,rev?*%
%TF.SameCoordinates,Original*%
%TF.FileFunction,Soldermask,Top*%
%TF.FilePolarity,Negative*%
%FSLAX46Y46*%
G04 Gerber Fmt 4.6, Leading zero omitted, Abs format (unit mm)*
G04 Created by KiCad (PCBNEW 9.0.4-9.0.4-0~ubuntu24.04.1) date 2025-09-22 11:21:34*
%MOMM*%
%LPD*%
G01*
G04 APERTURE LIST*
G04 Aperture macros list*
%AMRoundRect*
0 Rectangle with rounded corners*
0 $1 Rounding radius*
0 $2 $3 $4 $5 $6 $7 $8 $9 X,Y pos of 4 corners*
0 Add a 4 corners polygon primitive as box body*
4,1,4,$2,$3,$4,$5,$6,$7,$8,$9,$2,$3,0*
0 Add four circle primitives for the rounded corners*
1,1,$1+$1,$2,$3*
1,1,$1+$1,$4,$5*
1,1,$1+$1,$6,$7*
1,1,$1+$1,$8,$9*
0 Add four rect primitives between the rounded corners*
20,1,$1+$1,$2,$3,$4,$5,0*
20,1,$1+$1,$4,$5,$6,$7,0*
20,1,$1+$1,$6,$7,$8,$9,0*
20,1,$1+$1,$8,$9,$2,$3,0*%
G04 Aperture macros list end*
%ADD10C,5.334000*%
%ADD11C,1.700000*%
%ADD12C,4.000000*%
%ADD13C,2.200000*%
%ADD14C,1.600000*%
%ADD15C,1.650000*%
%ADD16R,2.500000X2.500000*%
%ADD17RoundRect,0.250000X-0.625000X0.400000X-0.625000X-0.400000X0.625000X-0.400000X0.625000X0.400000X0*%
%ADD18R,1.700000X1.700000*%
%ADD19C,3.810000*%
%ADD20RoundRect,0.250000X-0.400000X-0.625000X0.400000X-0.625000X0.400000X0.625000X-0.400000X0.625000X0*%
%ADD21R,1.800000X1.800000*%
%ADD22C,1.800000*%
%ADD23C,0.914400*%
%ADD24O,0.863600X1.854200*%
%ADD25C,2.311400*%
%ADD26C,1.422400*%
%ADD27C,1.727200*%
%ADD28R,1.727200X1.727200*%
G04 APERTURE END LIST*
D10*
%TO.C,H2*%
X78105000Y-90805000D03*
%TD*%
%TO.C,H4*%
X236855000Y-90805000D03*
%TD*%
D11*
%TO.C,SW2*%
X223520000Y-59690000D03*
D12*
X228600000Y-59690000D03*
D11*
X233680000Y-59690000D03*
D13*
X231140000Y-54610000D03*
X224790000Y-57150000D03*
%TD*%
D14*
%TO.C,SW5*%
X89360000Y-62230000D03*
X87360000Y-62230000D03*
X85360000Y-62230000D03*
X83360000Y-62230000D03*
D15*
X83860000Y-76730000D03*
X88860000Y-76730000D03*
X86360000Y-76730000D03*
D16*
X80860000Y-69230000D03*
X91860000Y-69230000D03*
%TD*%
D17*
%TO.C,R1*%
X154305000Y-75375000D03*
X154305000Y-78475000D03*
%TD*%
D18*
%TO.C,U1*%
X102347500Y-60564500D03*
D11*
X99807500Y-60564500D03*
X102347500Y-63104500D03*
X99807500Y-63104500D03*
X102347500Y-65644500D03*
X99807500Y-65644500D03*
X102347500Y-68184500D03*
X99807500Y-68184500D03*
X102347500Y-70724500D03*
X99807500Y-70724500D03*
X102347500Y-73264500D03*
X99807500Y-73264500D03*
X102347500Y-75804500D03*
X99807500Y-75804500D03*
X102347500Y-78344500D03*
X99807500Y-78344500D03*
D19*
X100061500Y-55484500D03*
X100061500Y-84059500D03*
X194905100Y-55484500D03*
X194905100Y-84059500D03*
%TD*%
D20*
%TO.C,R4*%
X90805000Y-57785000D03*
X93905000Y-57785000D03*
%TD*%
D11*
%TO.C,SW1*%
X204470000Y-59690000D03*
D12*
X209550000Y-59690000D03*
D11*
X214630000Y-59690000D03*
D13*
X212090000Y-54610000D03*
X205740000Y-57150000D03*
%TD*%
D20*
%TO.C,R3*%
X83820000Y-57785000D03*
X86920000Y-57785000D03*
%TD*%
D17*
%TO.C,R2*%
X150059800Y-75375000D03*
X150059800Y-78475000D03*
%TD*%
D11*
%TO.C,SW3*%
X204470000Y-78740000D03*
D12*
X209550000Y-78740000D03*
D11*
X214630000Y-78740000D03*
D13*
X212090000Y-73660000D03*
X205740000Y-76200000D03*
%TD*%
D10*
%TO.C,H3*%
X236855000Y-52705000D03*
%TD*%
D21*
%TO.C,D1*%
X84100000Y-52705000D03*
D22*
X86640000Y-52705000D03*
%TD*%
D10*
%TO.C,H1*%
X78105000Y-52705000D03*
%TD*%
D17*
%TO.C,R5*%
X127834800Y-75375000D03*
X127834800Y-78475000D03*
%TD*%
D11*
%TO.C,SW4*%
X223520000Y-78740000D03*
D12*
X228600000Y-78740000D03*
D11*
X233680000Y-78740000D03*
D13*
X231140000Y-73660000D03*
X224790000Y-76200000D03*
%TD*%
D17*
%TO.C,R6*%
X132279800Y-75375000D03*
X132279800Y-78475000D03*
%TD*%
D21*
%TO.C,D2*%
X91090000Y-52705000D03*
D22*
X93630000Y-52705000D03*
%TD*%
D23*
%TO.C,J1*%
X217756001Y-91710000D03*
X218406002Y-92710000D03*
X219056001Y-91710000D03*
X219706000Y-92710000D03*
X220356001Y-91710000D03*
D24*
X215481002Y-91929999D03*
X222631000Y-91929999D03*
%TD*%
D18*
%TO.C,J4*%
X180477000Y-81686000D03*
D11*
X183017000Y-81686000D03*
X185557000Y-81686000D03*
X188097000Y-81686000D03*
%TD*%
D18*
%TO.C,JP1*%
X182245000Y-61595000D03*
D11*
X184785000Y-61595000D03*
X187325000Y-61595000D03*
%TD*%
D18*
%TO.C,J2*%
X168910000Y-55880000D03*
D11*
X171450000Y-55880000D03*
X173990000Y-55880000D03*
X176530000Y-55880000D03*
X179070000Y-55880000D03*
X181610000Y-55880000D03*
%TD*%
D25*
%TO.C,J3*%
X212813900Y-85547200D03*
X225945700Y-85547200D03*
D26*
X215874600Y-88265000D03*
X218376500Y-88265000D03*
X220383100Y-88265000D03*
X222885000Y-88265000D03*
%TD*%
D13*
%TO.C,A1*%
X173554800Y-83910000D03*
X173554800Y-63410000D03*
X116554800Y-83910000D03*
X116554800Y-63410000D03*
D27*
X148590000Y-63500000D03*
X153670000Y-63500000D03*
X151130000Y-83820000D03*
X148590000Y-83820000D03*
X146050000Y-83820000D03*
X143510000Y-83820000D03*
X140970000Y-83820000D03*
X138430000Y-83820000D03*
X135890000Y-83820000D03*
X153670000Y-83820000D03*
X133350000Y-83820000D03*
X130810000Y-83820000D03*
X128270000Y-83820000D03*
X125730000Y-83820000D03*
X123190000Y-83820000D03*
X120650000Y-83820000D03*
X120650000Y-63500000D03*
X123190000Y-63500000D03*
X125730000Y-63500000D03*
X128270000Y-63500000D03*
X130810000Y-63500000D03*
X133350000Y-63500000D03*
X135890000Y-63500000D03*
X138430000Y-63500000D03*
X140970000Y-63500000D03*
D28*
X146050000Y-63500000D03*
D27*
X143510000Y-63500000D03*
X151130000Y-63500000D03*
%TD*%
M02*
