%TF.GenerationSoftware,KiCad,Pcbnew,9.0.4-9.0.4-0~ubuntu24.04.1*%
%TF.CreationDate,2025-09-26T13:54:12-04:00*%
%TF.ProjectId,car-control,6361722d-636f-46e7-9472-6f6c2e6b6963,rev?*%
%TF.SameCoordinates,Original*%
%TF.FileFunction,Legend,Bot*%
%TF.FilePolarity,Positive*%
%FSLAX46Y46*%
G04 Gerber Fmt 4.6, Leading zero omitted, Abs format (unit mm)*
G04 Created by KiCad (PCBNEW 9.0.4-9.0.4-0~ubuntu24.04.1) date 2025-09-26 13:54:12*
%MOMM*%
%LPD*%
G01*
G04 APERTURE LIST*
%ADD10C,0.152400*%
%ADD11C,0.254000*%
%ADD12C,0.203200*%
%ADD13C,0.150000*%
%ADD14C,0.120000*%
%ADD15C,0.508000*%
G04 APERTURE END LIST*
D10*
X179187451Y-50932137D02*
X178461737Y-50932137D01*
X179332594Y-51367566D02*
X178824594Y-49843566D01*
X178824594Y-49843566D02*
X178316594Y-51367566D01*
X177808593Y-51367566D02*
X177808593Y-49843566D01*
X177808593Y-49843566D02*
X176937736Y-51367566D01*
X176937736Y-51367566D02*
X176937736Y-49843566D01*
X176284594Y-50932137D02*
X175558880Y-50932137D01*
X176429737Y-51367566D02*
X175921737Y-49843566D01*
X175921737Y-49843566D02*
X175413737Y-51367566D01*
X174180022Y-51367566D02*
X174905736Y-51367566D01*
X174905736Y-51367566D02*
X174905736Y-49843566D01*
X173381737Y-49843566D02*
X173091451Y-49843566D01*
X173091451Y-49843566D02*
X172946308Y-49916137D01*
X172946308Y-49916137D02*
X172801165Y-50061280D01*
X172801165Y-50061280D02*
X172728594Y-50351566D01*
X172728594Y-50351566D02*
X172728594Y-50859566D01*
X172728594Y-50859566D02*
X172801165Y-51149852D01*
X172801165Y-51149852D02*
X172946308Y-51294995D01*
X172946308Y-51294995D02*
X173091451Y-51367566D01*
X173091451Y-51367566D02*
X173381737Y-51367566D01*
X173381737Y-51367566D02*
X173526880Y-51294995D01*
X173526880Y-51294995D02*
X173672022Y-51149852D01*
X173672022Y-51149852D02*
X173744594Y-50859566D01*
X173744594Y-50859566D02*
X173744594Y-50351566D01*
X173744594Y-50351566D02*
X173672022Y-50061280D01*
X173672022Y-50061280D02*
X173526880Y-49916137D01*
X173526880Y-49916137D02*
X173381737Y-49843566D01*
X171277166Y-49916137D02*
X171422309Y-49843566D01*
X171422309Y-49843566D02*
X171640023Y-49843566D01*
X171640023Y-49843566D02*
X171857737Y-49916137D01*
X171857737Y-49916137D02*
X172002880Y-50061280D01*
X172002880Y-50061280D02*
X172075451Y-50206423D01*
X172075451Y-50206423D02*
X172148023Y-50496709D01*
X172148023Y-50496709D02*
X172148023Y-50714423D01*
X172148023Y-50714423D02*
X172075451Y-51004709D01*
X172075451Y-51004709D02*
X172002880Y-51149852D01*
X172002880Y-51149852D02*
X171857737Y-51294995D01*
X171857737Y-51294995D02*
X171640023Y-51367566D01*
X171640023Y-51367566D02*
X171494880Y-51367566D01*
X171494880Y-51367566D02*
X171277166Y-51294995D01*
X171277166Y-51294995D02*
X171204594Y-51222423D01*
X171204594Y-51222423D02*
X171204594Y-50714423D01*
X171204594Y-50714423D02*
X171494880Y-50714423D01*
X174869451Y-53345137D02*
X174143737Y-53345137D01*
X175014594Y-53780566D02*
X174506594Y-52256566D01*
X174506594Y-52256566D02*
X173998594Y-53780566D01*
X172692308Y-53780566D02*
X173563165Y-53780566D01*
X173127736Y-53780566D02*
X173127736Y-52256566D01*
X173127736Y-52256566D02*
X173272879Y-52474280D01*
X173272879Y-52474280D02*
X173418022Y-52619423D01*
X173418022Y-52619423D02*
X173563165Y-52691995D01*
X170950594Y-52456137D02*
X171095737Y-52383566D01*
X171095737Y-52383566D02*
X171313451Y-52383566D01*
X171313451Y-52383566D02*
X171531165Y-52456137D01*
X171531165Y-52456137D02*
X171676308Y-52601280D01*
X171676308Y-52601280D02*
X171748879Y-52746423D01*
X171748879Y-52746423D02*
X171821451Y-53036709D01*
X171821451Y-53036709D02*
X171821451Y-53254423D01*
X171821451Y-53254423D02*
X171748879Y-53544709D01*
X171748879Y-53544709D02*
X171676308Y-53689852D01*
X171676308Y-53689852D02*
X171531165Y-53834995D01*
X171531165Y-53834995D02*
X171313451Y-53907566D01*
X171313451Y-53907566D02*
X171168308Y-53907566D01*
X171168308Y-53907566D02*
X170950594Y-53834995D01*
X170950594Y-53834995D02*
X170878022Y-53762423D01*
X170878022Y-53762423D02*
X170878022Y-53254423D01*
X170878022Y-53254423D02*
X171168308Y-53254423D01*
X175903594Y-52329137D02*
X176048737Y-52256566D01*
X176048737Y-52256566D02*
X176266451Y-52256566D01*
X176266451Y-52256566D02*
X176484165Y-52329137D01*
X176484165Y-52329137D02*
X176629308Y-52474280D01*
X176629308Y-52474280D02*
X176701879Y-52619423D01*
X176701879Y-52619423D02*
X176774451Y-52909709D01*
X176774451Y-52909709D02*
X176774451Y-53127423D01*
X176774451Y-53127423D02*
X176701879Y-53417709D01*
X176701879Y-53417709D02*
X176629308Y-53562852D01*
X176629308Y-53562852D02*
X176484165Y-53707995D01*
X176484165Y-53707995D02*
X176266451Y-53780566D01*
X176266451Y-53780566D02*
X176121308Y-53780566D01*
X176121308Y-53780566D02*
X175903594Y-53707995D01*
X175903594Y-53707995D02*
X175831022Y-53635423D01*
X175831022Y-53635423D02*
X175831022Y-53127423D01*
X175831022Y-53127423D02*
X176121308Y-53127423D01*
X181618594Y-52456137D02*
X181763737Y-52383566D01*
X181763737Y-52383566D02*
X181981451Y-52383566D01*
X181981451Y-52383566D02*
X182199165Y-52456137D01*
X182199165Y-52456137D02*
X182344308Y-52601280D01*
X182344308Y-52601280D02*
X182416879Y-52746423D01*
X182416879Y-52746423D02*
X182489451Y-53036709D01*
X182489451Y-53036709D02*
X182489451Y-53254423D01*
X182489451Y-53254423D02*
X182416879Y-53544709D01*
X182416879Y-53544709D02*
X182344308Y-53689852D01*
X182344308Y-53689852D02*
X182199165Y-53834995D01*
X182199165Y-53834995D02*
X181981451Y-53907566D01*
X181981451Y-53907566D02*
X181836308Y-53907566D01*
X181836308Y-53907566D02*
X181618594Y-53834995D01*
X181618594Y-53834995D02*
X181546022Y-53762423D01*
X181546022Y-53762423D02*
X181546022Y-53254423D01*
X181546022Y-53254423D02*
X181836308Y-53254423D01*
X189238594Y-58171137D02*
X189383737Y-58098566D01*
X189383737Y-58098566D02*
X189601451Y-58098566D01*
X189601451Y-58098566D02*
X189819165Y-58171137D01*
X189819165Y-58171137D02*
X189964308Y-58316280D01*
X189964308Y-58316280D02*
X190036879Y-58461423D01*
X190036879Y-58461423D02*
X190109451Y-58751709D01*
X190109451Y-58751709D02*
X190109451Y-58969423D01*
X190109451Y-58969423D02*
X190036879Y-59259709D01*
X190036879Y-59259709D02*
X189964308Y-59404852D01*
X189964308Y-59404852D02*
X189819165Y-59549995D01*
X189819165Y-59549995D02*
X189601451Y-59622566D01*
X189601451Y-59622566D02*
X189456308Y-59622566D01*
X189456308Y-59622566D02*
X189238594Y-59549995D01*
X189238594Y-59549995D02*
X189166022Y-59477423D01*
X189166022Y-59477423D02*
X189166022Y-58969423D01*
X189166022Y-58969423D02*
X189456308Y-58969423D01*
X188512879Y-59622566D02*
X188512879Y-58098566D01*
X188512879Y-58098566D02*
X187932308Y-58098566D01*
X187932308Y-58098566D02*
X187787165Y-58171137D01*
X187787165Y-58171137D02*
X187714594Y-58243709D01*
X187714594Y-58243709D02*
X187642022Y-58388852D01*
X187642022Y-58388852D02*
X187642022Y-58606566D01*
X187642022Y-58606566D02*
X187714594Y-58751709D01*
X187714594Y-58751709D02*
X187787165Y-58824280D01*
X187787165Y-58824280D02*
X187932308Y-58896852D01*
X187932308Y-58896852D02*
X188512879Y-58896852D01*
X187061451Y-59549995D02*
X186843737Y-59622566D01*
X186843737Y-59622566D02*
X186480879Y-59622566D01*
X186480879Y-59622566D02*
X186335737Y-59549995D01*
X186335737Y-59549995D02*
X186263165Y-59477423D01*
X186263165Y-59477423D02*
X186190594Y-59332280D01*
X186190594Y-59332280D02*
X186190594Y-59187137D01*
X186190594Y-59187137D02*
X186263165Y-59041995D01*
X186263165Y-59041995D02*
X186335737Y-58969423D01*
X186335737Y-58969423D02*
X186480879Y-58896852D01*
X186480879Y-58896852D02*
X186771165Y-58824280D01*
X186771165Y-58824280D02*
X186916308Y-58751709D01*
X186916308Y-58751709D02*
X186988879Y-58679137D01*
X186988879Y-58679137D02*
X187061451Y-58533995D01*
X187061451Y-58533995D02*
X187061451Y-58388852D01*
X187061451Y-58388852D02*
X186988879Y-58243709D01*
X186988879Y-58243709D02*
X186916308Y-58171137D01*
X186916308Y-58171137D02*
X186771165Y-58098566D01*
X186771165Y-58098566D02*
X186408308Y-58098566D01*
X186408308Y-58098566D02*
X186190594Y-58171137D01*
X184376307Y-59622566D02*
X184376307Y-58098566D01*
X184376307Y-58098566D02*
X183795736Y-58098566D01*
X183795736Y-58098566D02*
X183650593Y-58171137D01*
X183650593Y-58171137D02*
X183578022Y-58243709D01*
X183578022Y-58243709D02*
X183505450Y-58388852D01*
X183505450Y-58388852D02*
X183505450Y-58606566D01*
X183505450Y-58606566D02*
X183578022Y-58751709D01*
X183578022Y-58751709D02*
X183650593Y-58824280D01*
X183650593Y-58824280D02*
X183795736Y-58896852D01*
X183795736Y-58896852D02*
X184376307Y-58896852D01*
X182997450Y-58098566D02*
X182634593Y-59622566D01*
X182634593Y-59622566D02*
X182344307Y-58533995D01*
X182344307Y-58533995D02*
X182054022Y-59622566D01*
X182054022Y-59622566D02*
X181691165Y-58098566D01*
X180239736Y-59622566D02*
X180747736Y-58896852D01*
X181110593Y-59622566D02*
X181110593Y-58098566D01*
X181110593Y-58098566D02*
X180530022Y-58098566D01*
X180530022Y-58098566D02*
X180384879Y-58171137D01*
X180384879Y-58171137D02*
X180312308Y-58243709D01*
X180312308Y-58243709D02*
X180239736Y-58388852D01*
X180239736Y-58388852D02*
X180239736Y-58606566D01*
X180239736Y-58606566D02*
X180312308Y-58751709D01*
X180312308Y-58751709D02*
X180384879Y-58824280D01*
X180384879Y-58824280D02*
X180530022Y-58896852D01*
X180530022Y-58896852D02*
X181110593Y-58896852D01*
D11*
X161304323Y-54743856D02*
X160669323Y-54743856D01*
X160397180Y-55741713D02*
X161304323Y-55741713D01*
X161304323Y-55741713D02*
X161304323Y-53836713D01*
X161304323Y-53836713D02*
X160397180Y-53836713D01*
X159580752Y-55560284D02*
X159490038Y-55650999D01*
X159490038Y-55650999D02*
X159580752Y-55741713D01*
X159580752Y-55741713D02*
X159671466Y-55650999D01*
X159671466Y-55650999D02*
X159580752Y-55560284D01*
X159580752Y-55560284D02*
X159580752Y-55741713D01*
X157222180Y-55741713D02*
X157222180Y-53836713D01*
X157222180Y-54743856D02*
X156133609Y-54743856D01*
X156133609Y-55741713D02*
X156133609Y-53836713D01*
X154410038Y-55741713D02*
X154410038Y-54743856D01*
X154410038Y-54743856D02*
X154500752Y-54562427D01*
X154500752Y-54562427D02*
X154682180Y-54471713D01*
X154682180Y-54471713D02*
X155045038Y-54471713D01*
X155045038Y-54471713D02*
X155226466Y-54562427D01*
X154410038Y-55650999D02*
X154591466Y-55741713D01*
X154591466Y-55741713D02*
X155045038Y-55741713D01*
X155045038Y-55741713D02*
X155226466Y-55650999D01*
X155226466Y-55650999D02*
X155317180Y-55469570D01*
X155317180Y-55469570D02*
X155317180Y-55288141D01*
X155317180Y-55288141D02*
X155226466Y-55106713D01*
X155226466Y-55106713D02*
X155045038Y-55015999D01*
X155045038Y-55015999D02*
X154591466Y-55015999D01*
X154591466Y-55015999D02*
X154410038Y-54925284D01*
X153684324Y-54471713D02*
X152686467Y-54471713D01*
X152686467Y-54471713D02*
X153684324Y-55741713D01*
X153684324Y-55741713D02*
X152686467Y-55741713D01*
X151235038Y-55650999D02*
X151416466Y-55741713D01*
X151416466Y-55741713D02*
X151779324Y-55741713D01*
X151779324Y-55741713D02*
X151960752Y-55650999D01*
X151960752Y-55650999D02*
X152051466Y-55469570D01*
X152051466Y-55469570D02*
X152051466Y-54743856D01*
X152051466Y-54743856D02*
X151960752Y-54562427D01*
X151960752Y-54562427D02*
X151779324Y-54471713D01*
X151779324Y-54471713D02*
X151416466Y-54471713D01*
X151416466Y-54471713D02*
X151235038Y-54562427D01*
X151235038Y-54562427D02*
X151144324Y-54743856D01*
X151144324Y-54743856D02*
X151144324Y-54925284D01*
X151144324Y-54925284D02*
X152051466Y-55106713D01*
X150327895Y-54471713D02*
X150327895Y-55741713D01*
X150327895Y-54653141D02*
X150237181Y-54562427D01*
X150237181Y-54562427D02*
X150055752Y-54471713D01*
X150055752Y-54471713D02*
X149783609Y-54471713D01*
X149783609Y-54471713D02*
X149602181Y-54562427D01*
X149602181Y-54562427D02*
X149511467Y-54743856D01*
X149511467Y-54743856D02*
X149511467Y-55741713D01*
X160215752Y-58808656D02*
X160850752Y-57901513D01*
X161304323Y-58808656D02*
X161304323Y-56903656D01*
X161304323Y-56903656D02*
X160578609Y-56903656D01*
X160578609Y-56903656D02*
X160397180Y-56994370D01*
X160397180Y-56994370D02*
X160306466Y-57085084D01*
X160306466Y-57085084D02*
X160215752Y-57266513D01*
X160215752Y-57266513D02*
X160215752Y-57538656D01*
X160215752Y-57538656D02*
X160306466Y-57720084D01*
X160306466Y-57720084D02*
X160397180Y-57810799D01*
X160397180Y-57810799D02*
X160578609Y-57901513D01*
X160578609Y-57901513D02*
X161304323Y-57901513D01*
X158673609Y-58717942D02*
X158855037Y-58808656D01*
X158855037Y-58808656D02*
X159217895Y-58808656D01*
X159217895Y-58808656D02*
X159399323Y-58717942D01*
X159399323Y-58717942D02*
X159490037Y-58536513D01*
X159490037Y-58536513D02*
X159490037Y-57810799D01*
X159490037Y-57810799D02*
X159399323Y-57629370D01*
X159399323Y-57629370D02*
X159217895Y-57538656D01*
X159217895Y-57538656D02*
X158855037Y-57538656D01*
X158855037Y-57538656D02*
X158673609Y-57629370D01*
X158673609Y-57629370D02*
X158582895Y-57810799D01*
X158582895Y-57810799D02*
X158582895Y-57992227D01*
X158582895Y-57992227D02*
X159490037Y-58173656D01*
X157947895Y-57538656D02*
X157494323Y-58808656D01*
X157494323Y-58808656D02*
X157040752Y-57538656D01*
X153865751Y-58808656D02*
X154954322Y-58808656D01*
X154410037Y-58808656D02*
X154410037Y-56903656D01*
X154410037Y-56903656D02*
X154591465Y-57175799D01*
X154591465Y-57175799D02*
X154772894Y-57357227D01*
X154772894Y-57357227D02*
X154954322Y-57447942D01*
X153049322Y-58627227D02*
X152958608Y-58717942D01*
X152958608Y-58717942D02*
X153049322Y-58808656D01*
X153049322Y-58808656D02*
X153140036Y-58717942D01*
X153140036Y-58717942D02*
X153049322Y-58627227D01*
X153049322Y-58627227D02*
X153049322Y-58808656D01*
X151779322Y-56903656D02*
X151597893Y-56903656D01*
X151597893Y-56903656D02*
X151416465Y-56994370D01*
X151416465Y-56994370D02*
X151325751Y-57085084D01*
X151325751Y-57085084D02*
X151235036Y-57266513D01*
X151235036Y-57266513D02*
X151144322Y-57629370D01*
X151144322Y-57629370D02*
X151144322Y-58082942D01*
X151144322Y-58082942D02*
X151235036Y-58445799D01*
X151235036Y-58445799D02*
X151325751Y-58627227D01*
X151325751Y-58627227D02*
X151416465Y-58717942D01*
X151416465Y-58717942D02*
X151597893Y-58808656D01*
X151597893Y-58808656D02*
X151779322Y-58808656D01*
X151779322Y-58808656D02*
X151960751Y-58717942D01*
X151960751Y-58717942D02*
X152051465Y-58627227D01*
X152051465Y-58627227D02*
X152142179Y-58445799D01*
X152142179Y-58445799D02*
X152232893Y-58082942D01*
X152232893Y-58082942D02*
X152232893Y-57629370D01*
X152232893Y-57629370D02*
X152142179Y-57266513D01*
X152142179Y-57266513D02*
X152051465Y-57085084D01*
X152051465Y-57085084D02*
X151960751Y-56994370D01*
X151960751Y-56994370D02*
X151779322Y-56903656D01*
X148876464Y-58082942D02*
X147425036Y-58082942D01*
X145157178Y-57085084D02*
X145066464Y-56994370D01*
X145066464Y-56994370D02*
X144885036Y-56903656D01*
X144885036Y-56903656D02*
X144431464Y-56903656D01*
X144431464Y-56903656D02*
X144250036Y-56994370D01*
X144250036Y-56994370D02*
X144159321Y-57085084D01*
X144159321Y-57085084D02*
X144068607Y-57266513D01*
X144068607Y-57266513D02*
X144068607Y-57447942D01*
X144068607Y-57447942D02*
X144159321Y-57720084D01*
X144159321Y-57720084D02*
X145247893Y-58808656D01*
X145247893Y-58808656D02*
X144068607Y-58808656D01*
X142889321Y-56903656D02*
X142707892Y-56903656D01*
X142707892Y-56903656D02*
X142526464Y-56994370D01*
X142526464Y-56994370D02*
X142435750Y-57085084D01*
X142435750Y-57085084D02*
X142345035Y-57266513D01*
X142345035Y-57266513D02*
X142254321Y-57629370D01*
X142254321Y-57629370D02*
X142254321Y-58082942D01*
X142254321Y-58082942D02*
X142345035Y-58445799D01*
X142345035Y-58445799D02*
X142435750Y-58627227D01*
X142435750Y-58627227D02*
X142526464Y-58717942D01*
X142526464Y-58717942D02*
X142707892Y-58808656D01*
X142707892Y-58808656D02*
X142889321Y-58808656D01*
X142889321Y-58808656D02*
X143070750Y-58717942D01*
X143070750Y-58717942D02*
X143161464Y-58627227D01*
X143161464Y-58627227D02*
X143252178Y-58445799D01*
X143252178Y-58445799D02*
X143342892Y-58082942D01*
X143342892Y-58082942D02*
X143342892Y-57629370D01*
X143342892Y-57629370D02*
X143252178Y-57266513D01*
X143252178Y-57266513D02*
X143161464Y-57085084D01*
X143161464Y-57085084D02*
X143070750Y-56994370D01*
X143070750Y-56994370D02*
X142889321Y-56903656D01*
X141528606Y-57085084D02*
X141437892Y-56994370D01*
X141437892Y-56994370D02*
X141256464Y-56903656D01*
X141256464Y-56903656D02*
X140802892Y-56903656D01*
X140802892Y-56903656D02*
X140621464Y-56994370D01*
X140621464Y-56994370D02*
X140530749Y-57085084D01*
X140530749Y-57085084D02*
X140440035Y-57266513D01*
X140440035Y-57266513D02*
X140440035Y-57447942D01*
X140440035Y-57447942D02*
X140530749Y-57720084D01*
X140530749Y-57720084D02*
X141619321Y-58808656D01*
X141619321Y-58808656D02*
X140440035Y-58808656D01*
X138716463Y-56903656D02*
X139623606Y-56903656D01*
X139623606Y-56903656D02*
X139714320Y-57810799D01*
X139714320Y-57810799D02*
X139623606Y-57720084D01*
X139623606Y-57720084D02*
X139442178Y-57629370D01*
X139442178Y-57629370D02*
X138988606Y-57629370D01*
X138988606Y-57629370D02*
X138807178Y-57720084D01*
X138807178Y-57720084D02*
X138716463Y-57810799D01*
X138716463Y-57810799D02*
X138625749Y-57992227D01*
X138625749Y-57992227D02*
X138625749Y-58445799D01*
X138625749Y-58445799D02*
X138716463Y-58627227D01*
X138716463Y-58627227D02*
X138807178Y-58717942D01*
X138807178Y-58717942D02*
X138988606Y-58808656D01*
X138988606Y-58808656D02*
X139442178Y-58808656D01*
X139442178Y-58808656D02*
X139623606Y-58717942D01*
X139623606Y-58717942D02*
X139714320Y-58627227D01*
X137809320Y-58082942D02*
X136357892Y-58082942D01*
X135087892Y-56903656D02*
X134906463Y-56903656D01*
X134906463Y-56903656D02*
X134725035Y-56994370D01*
X134725035Y-56994370D02*
X134634321Y-57085084D01*
X134634321Y-57085084D02*
X134543606Y-57266513D01*
X134543606Y-57266513D02*
X134452892Y-57629370D01*
X134452892Y-57629370D02*
X134452892Y-58082942D01*
X134452892Y-58082942D02*
X134543606Y-58445799D01*
X134543606Y-58445799D02*
X134634321Y-58627227D01*
X134634321Y-58627227D02*
X134725035Y-58717942D01*
X134725035Y-58717942D02*
X134906463Y-58808656D01*
X134906463Y-58808656D02*
X135087892Y-58808656D01*
X135087892Y-58808656D02*
X135269321Y-58717942D01*
X135269321Y-58717942D02*
X135360035Y-58627227D01*
X135360035Y-58627227D02*
X135450749Y-58445799D01*
X135450749Y-58445799D02*
X135541463Y-58082942D01*
X135541463Y-58082942D02*
X135541463Y-57629370D01*
X135541463Y-57629370D02*
X135450749Y-57266513D01*
X135450749Y-57266513D02*
X135360035Y-57085084D01*
X135360035Y-57085084D02*
X135269321Y-56994370D01*
X135269321Y-56994370D02*
X135087892Y-56903656D01*
X133545749Y-58808656D02*
X133182892Y-58808656D01*
X133182892Y-58808656D02*
X133001463Y-58717942D01*
X133001463Y-58717942D02*
X132910749Y-58627227D01*
X132910749Y-58627227D02*
X132729320Y-58355084D01*
X132729320Y-58355084D02*
X132638606Y-57992227D01*
X132638606Y-57992227D02*
X132638606Y-57266513D01*
X132638606Y-57266513D02*
X132729320Y-57085084D01*
X132729320Y-57085084D02*
X132820035Y-56994370D01*
X132820035Y-56994370D02*
X133001463Y-56903656D01*
X133001463Y-56903656D02*
X133364320Y-56903656D01*
X133364320Y-56903656D02*
X133545749Y-56994370D01*
X133545749Y-56994370D02*
X133636463Y-57085084D01*
X133636463Y-57085084D02*
X133727177Y-57266513D01*
X133727177Y-57266513D02*
X133727177Y-57720084D01*
X133727177Y-57720084D02*
X133636463Y-57901513D01*
X133636463Y-57901513D02*
X133545749Y-57992227D01*
X133545749Y-57992227D02*
X133364320Y-58082942D01*
X133364320Y-58082942D02*
X133001463Y-58082942D01*
X133001463Y-58082942D02*
X132820035Y-57992227D01*
X132820035Y-57992227D02*
X132729320Y-57901513D01*
X132729320Y-57901513D02*
X132638606Y-57720084D01*
X160215752Y-52658227D02*
X160306466Y-52748942D01*
X160306466Y-52748942D02*
X160578609Y-52839656D01*
X160578609Y-52839656D02*
X160760037Y-52839656D01*
X160760037Y-52839656D02*
X161032180Y-52748942D01*
X161032180Y-52748942D02*
X161213609Y-52567513D01*
X161213609Y-52567513D02*
X161304323Y-52386084D01*
X161304323Y-52386084D02*
X161395037Y-52023227D01*
X161395037Y-52023227D02*
X161395037Y-51751084D01*
X161395037Y-51751084D02*
X161304323Y-51388227D01*
X161304323Y-51388227D02*
X161213609Y-51206799D01*
X161213609Y-51206799D02*
X161032180Y-51025370D01*
X161032180Y-51025370D02*
X160760037Y-50934656D01*
X160760037Y-50934656D02*
X160578609Y-50934656D01*
X160578609Y-50934656D02*
X160306466Y-51025370D01*
X160306466Y-51025370D02*
X160215752Y-51116084D01*
X158582895Y-52839656D02*
X158582895Y-51841799D01*
X158582895Y-51841799D02*
X158673609Y-51660370D01*
X158673609Y-51660370D02*
X158855037Y-51569656D01*
X158855037Y-51569656D02*
X159217895Y-51569656D01*
X159217895Y-51569656D02*
X159399323Y-51660370D01*
X158582895Y-52748942D02*
X158764323Y-52839656D01*
X158764323Y-52839656D02*
X159217895Y-52839656D01*
X159217895Y-52839656D02*
X159399323Y-52748942D01*
X159399323Y-52748942D02*
X159490037Y-52567513D01*
X159490037Y-52567513D02*
X159490037Y-52386084D01*
X159490037Y-52386084D02*
X159399323Y-52204656D01*
X159399323Y-52204656D02*
X159217895Y-52113942D01*
X159217895Y-52113942D02*
X158764323Y-52113942D01*
X158764323Y-52113942D02*
X158582895Y-52023227D01*
X157675752Y-52839656D02*
X157675752Y-51569656D01*
X157675752Y-51932513D02*
X157585038Y-51751084D01*
X157585038Y-51751084D02*
X157494324Y-51660370D01*
X157494324Y-51660370D02*
X157312895Y-51569656D01*
X157312895Y-51569656D02*
X157131466Y-51569656D01*
X156496466Y-52839656D02*
X156496466Y-50934656D01*
X156496466Y-50934656D02*
X155770752Y-50934656D01*
X155770752Y-50934656D02*
X155589323Y-51025370D01*
X155589323Y-51025370D02*
X155498609Y-51116084D01*
X155498609Y-51116084D02*
X155407895Y-51297513D01*
X155407895Y-51297513D02*
X155407895Y-51569656D01*
X155407895Y-51569656D02*
X155498609Y-51751084D01*
X155498609Y-51751084D02*
X155589323Y-51841799D01*
X155589323Y-51841799D02*
X155770752Y-51932513D01*
X155770752Y-51932513D02*
X156496466Y-51932513D01*
X153775038Y-51569656D02*
X153775038Y-52839656D01*
X154591466Y-51569656D02*
X154591466Y-52567513D01*
X154591466Y-52567513D02*
X154500752Y-52748942D01*
X154500752Y-52748942D02*
X154319323Y-52839656D01*
X154319323Y-52839656D02*
X154047180Y-52839656D01*
X154047180Y-52839656D02*
X153865752Y-52748942D01*
X153865752Y-52748942D02*
X153775038Y-52658227D01*
X153140038Y-51569656D02*
X152414324Y-51569656D01*
X152867895Y-50934656D02*
X152867895Y-52567513D01*
X152867895Y-52567513D02*
X152777181Y-52748942D01*
X152777181Y-52748942D02*
X152595752Y-52839656D01*
X152595752Y-52839656D02*
X152414324Y-52839656D01*
X151053610Y-52748942D02*
X151235038Y-52839656D01*
X151235038Y-52839656D02*
X151597896Y-52839656D01*
X151597896Y-52839656D02*
X151779324Y-52748942D01*
X151779324Y-52748942D02*
X151870038Y-52567513D01*
X151870038Y-52567513D02*
X151870038Y-51841799D01*
X151870038Y-51841799D02*
X151779324Y-51660370D01*
X151779324Y-51660370D02*
X151597896Y-51569656D01*
X151597896Y-51569656D02*
X151235038Y-51569656D01*
X151235038Y-51569656D02*
X151053610Y-51660370D01*
X151053610Y-51660370D02*
X150962896Y-51841799D01*
X150962896Y-51841799D02*
X150962896Y-52023227D01*
X150962896Y-52023227D02*
X151870038Y-52204656D01*
X150146467Y-52839656D02*
X150146467Y-51569656D01*
X150146467Y-51932513D02*
X150055753Y-51751084D01*
X150055753Y-51751084D02*
X149965039Y-51660370D01*
X149965039Y-51660370D02*
X149783610Y-51569656D01*
X149783610Y-51569656D02*
X149602181Y-51569656D01*
X146699324Y-52748942D02*
X146880752Y-52839656D01*
X146880752Y-52839656D02*
X147243609Y-52839656D01*
X147243609Y-52839656D02*
X147425038Y-52748942D01*
X147425038Y-52748942D02*
X147515752Y-52658227D01*
X147515752Y-52658227D02*
X147606466Y-52476799D01*
X147606466Y-52476799D02*
X147606466Y-51932513D01*
X147606466Y-51932513D02*
X147515752Y-51751084D01*
X147515752Y-51751084D02*
X147425038Y-51660370D01*
X147425038Y-51660370D02*
X147243609Y-51569656D01*
X147243609Y-51569656D02*
X146880752Y-51569656D01*
X146880752Y-51569656D02*
X146699324Y-51660370D01*
X145610752Y-52839656D02*
X145792181Y-52748942D01*
X145792181Y-52748942D02*
X145882895Y-52658227D01*
X145882895Y-52658227D02*
X145973609Y-52476799D01*
X145973609Y-52476799D02*
X145973609Y-51932513D01*
X145973609Y-51932513D02*
X145882895Y-51751084D01*
X145882895Y-51751084D02*
X145792181Y-51660370D01*
X145792181Y-51660370D02*
X145610752Y-51569656D01*
X145610752Y-51569656D02*
X145338609Y-51569656D01*
X145338609Y-51569656D02*
X145157181Y-51660370D01*
X145157181Y-51660370D02*
X145066467Y-51751084D01*
X145066467Y-51751084D02*
X144975752Y-51932513D01*
X144975752Y-51932513D02*
X144975752Y-52476799D01*
X144975752Y-52476799D02*
X145066467Y-52658227D01*
X145066467Y-52658227D02*
X145157181Y-52748942D01*
X145157181Y-52748942D02*
X145338609Y-52839656D01*
X145338609Y-52839656D02*
X145610752Y-52839656D01*
X144159324Y-51569656D02*
X144159324Y-52839656D01*
X144159324Y-51751084D02*
X144068610Y-51660370D01*
X144068610Y-51660370D02*
X143887181Y-51569656D01*
X143887181Y-51569656D02*
X143615038Y-51569656D01*
X143615038Y-51569656D02*
X143433610Y-51660370D01*
X143433610Y-51660370D02*
X143342896Y-51841799D01*
X143342896Y-51841799D02*
X143342896Y-52839656D01*
X142707896Y-51569656D02*
X141982182Y-51569656D01*
X142435753Y-50934656D02*
X142435753Y-52567513D01*
X142435753Y-52567513D02*
X142345039Y-52748942D01*
X142345039Y-52748942D02*
X142163610Y-52839656D01*
X142163610Y-52839656D02*
X141982182Y-52839656D01*
X141347182Y-52839656D02*
X141347182Y-51569656D01*
X141347182Y-51932513D02*
X141256468Y-51751084D01*
X141256468Y-51751084D02*
X141165754Y-51660370D01*
X141165754Y-51660370D02*
X140984325Y-51569656D01*
X140984325Y-51569656D02*
X140802896Y-51569656D01*
X139895753Y-52839656D02*
X140077182Y-52748942D01*
X140077182Y-52748942D02*
X140167896Y-52658227D01*
X140167896Y-52658227D02*
X140258610Y-52476799D01*
X140258610Y-52476799D02*
X140258610Y-51932513D01*
X140258610Y-51932513D02*
X140167896Y-51751084D01*
X140167896Y-51751084D02*
X140077182Y-51660370D01*
X140077182Y-51660370D02*
X139895753Y-51569656D01*
X139895753Y-51569656D02*
X139623610Y-51569656D01*
X139623610Y-51569656D02*
X139442182Y-51660370D01*
X139442182Y-51660370D02*
X139351468Y-51751084D01*
X139351468Y-51751084D02*
X139260753Y-51932513D01*
X139260753Y-51932513D02*
X139260753Y-52476799D01*
X139260753Y-52476799D02*
X139351468Y-52658227D01*
X139351468Y-52658227D02*
X139442182Y-52748942D01*
X139442182Y-52748942D02*
X139623610Y-52839656D01*
X139623610Y-52839656D02*
X139895753Y-52839656D01*
X138172182Y-52839656D02*
X138353611Y-52748942D01*
X138353611Y-52748942D02*
X138444325Y-52567513D01*
X138444325Y-52567513D02*
X138444325Y-50934656D01*
X135995039Y-51569656D02*
X135995039Y-53474656D01*
X135995039Y-51660370D02*
X135813611Y-51569656D01*
X135813611Y-51569656D02*
X135450753Y-51569656D01*
X135450753Y-51569656D02*
X135269325Y-51660370D01*
X135269325Y-51660370D02*
X135178611Y-51751084D01*
X135178611Y-51751084D02*
X135087896Y-51932513D01*
X135087896Y-51932513D02*
X135087896Y-52476799D01*
X135087896Y-52476799D02*
X135178611Y-52658227D01*
X135178611Y-52658227D02*
X135269325Y-52748942D01*
X135269325Y-52748942D02*
X135450753Y-52839656D01*
X135450753Y-52839656D02*
X135813611Y-52839656D01*
X135813611Y-52839656D02*
X135995039Y-52748942D01*
X133455040Y-52839656D02*
X133455040Y-51841799D01*
X133455040Y-51841799D02*
X133545754Y-51660370D01*
X133545754Y-51660370D02*
X133727182Y-51569656D01*
X133727182Y-51569656D02*
X134090040Y-51569656D01*
X134090040Y-51569656D02*
X134271468Y-51660370D01*
X133455040Y-52748942D02*
X133636468Y-52839656D01*
X133636468Y-52839656D02*
X134090040Y-52839656D01*
X134090040Y-52839656D02*
X134271468Y-52748942D01*
X134271468Y-52748942D02*
X134362182Y-52567513D01*
X134362182Y-52567513D02*
X134362182Y-52386084D01*
X134362182Y-52386084D02*
X134271468Y-52204656D01*
X134271468Y-52204656D02*
X134090040Y-52113942D01*
X134090040Y-52113942D02*
X133636468Y-52113942D01*
X133636468Y-52113942D02*
X133455040Y-52023227D01*
X132547897Y-51569656D02*
X132547897Y-52839656D01*
X132547897Y-51751084D02*
X132457183Y-51660370D01*
X132457183Y-51660370D02*
X132275754Y-51569656D01*
X132275754Y-51569656D02*
X132003611Y-51569656D01*
X132003611Y-51569656D02*
X131822183Y-51660370D01*
X131822183Y-51660370D02*
X131731469Y-51841799D01*
X131731469Y-51841799D02*
X131731469Y-52839656D01*
X130098612Y-52748942D02*
X130280040Y-52839656D01*
X130280040Y-52839656D02*
X130642898Y-52839656D01*
X130642898Y-52839656D02*
X130824326Y-52748942D01*
X130824326Y-52748942D02*
X130915040Y-52567513D01*
X130915040Y-52567513D02*
X130915040Y-51841799D01*
X130915040Y-51841799D02*
X130824326Y-51660370D01*
X130824326Y-51660370D02*
X130642898Y-51569656D01*
X130642898Y-51569656D02*
X130280040Y-51569656D01*
X130280040Y-51569656D02*
X130098612Y-51660370D01*
X130098612Y-51660370D02*
X130007898Y-51841799D01*
X130007898Y-51841799D02*
X130007898Y-52023227D01*
X130007898Y-52023227D02*
X130915040Y-52204656D01*
X128919326Y-52839656D02*
X129100755Y-52748942D01*
X129100755Y-52748942D02*
X129191469Y-52567513D01*
X129191469Y-52567513D02*
X129191469Y-50934656D01*
D10*
X180784022Y-52383566D02*
X179840594Y-52383566D01*
X179840594Y-52383566D02*
X180348594Y-52964137D01*
X180348594Y-52964137D02*
X180130879Y-52964137D01*
X180130879Y-52964137D02*
X179985737Y-53036709D01*
X179985737Y-53036709D02*
X179913165Y-53109280D01*
X179913165Y-53109280D02*
X179840594Y-53254423D01*
X179840594Y-53254423D02*
X179840594Y-53617280D01*
X179840594Y-53617280D02*
X179913165Y-53762423D01*
X179913165Y-53762423D02*
X179985737Y-53834995D01*
X179985737Y-53834995D02*
X180130879Y-53907566D01*
X180130879Y-53907566D02*
X180566308Y-53907566D01*
X180566308Y-53907566D02*
X180711451Y-53834995D01*
X180711451Y-53834995D02*
X180784022Y-53762423D01*
X179187450Y-53762423D02*
X179114879Y-53834995D01*
X179114879Y-53834995D02*
X179187450Y-53907566D01*
X179187450Y-53907566D02*
X179260022Y-53834995D01*
X179260022Y-53834995D02*
X179187450Y-53762423D01*
X179187450Y-53762423D02*
X179187450Y-53907566D01*
X178606879Y-52383566D02*
X177663451Y-52383566D01*
X177663451Y-52383566D02*
X178171451Y-52964137D01*
X178171451Y-52964137D02*
X177953736Y-52964137D01*
X177953736Y-52964137D02*
X177808594Y-53036709D01*
X177808594Y-53036709D02*
X177736022Y-53109280D01*
X177736022Y-53109280D02*
X177663451Y-53254423D01*
X177663451Y-53254423D02*
X177663451Y-53617280D01*
X177663451Y-53617280D02*
X177736022Y-53762423D01*
X177736022Y-53762423D02*
X177808594Y-53834995D01*
X177808594Y-53834995D02*
X177953736Y-53907566D01*
X177953736Y-53907566D02*
X178389165Y-53907566D01*
X178389165Y-53907566D02*
X178534308Y-53834995D01*
X178534308Y-53834995D02*
X178606879Y-53762423D01*
X192286594Y-63686566D02*
X191778594Y-65210566D01*
X191778594Y-65210566D02*
X191270594Y-63686566D01*
X190254593Y-64412280D02*
X190036879Y-64484852D01*
X190036879Y-64484852D02*
X189964308Y-64557423D01*
X189964308Y-64557423D02*
X189891736Y-64702566D01*
X189891736Y-64702566D02*
X189891736Y-64920280D01*
X189891736Y-64920280D02*
X189964308Y-65065423D01*
X189964308Y-65065423D02*
X190036879Y-65137995D01*
X190036879Y-65137995D02*
X190182022Y-65210566D01*
X190182022Y-65210566D02*
X190762593Y-65210566D01*
X190762593Y-65210566D02*
X190762593Y-63686566D01*
X190762593Y-63686566D02*
X190254593Y-63686566D01*
X190254593Y-63686566D02*
X190109451Y-63759137D01*
X190109451Y-63759137D02*
X190036879Y-63831709D01*
X190036879Y-63831709D02*
X189964308Y-63976852D01*
X189964308Y-63976852D02*
X189964308Y-64121995D01*
X189964308Y-64121995D02*
X190036879Y-64267137D01*
X190036879Y-64267137D02*
X190109451Y-64339709D01*
X190109451Y-64339709D02*
X190254593Y-64412280D01*
X190254593Y-64412280D02*
X190762593Y-64412280D01*
X189238593Y-63686566D02*
X189238593Y-64920280D01*
X189238593Y-64920280D02*
X189166022Y-65065423D01*
X189166022Y-65065423D02*
X189093451Y-65137995D01*
X189093451Y-65137995D02*
X188948308Y-65210566D01*
X188948308Y-65210566D02*
X188658022Y-65210566D01*
X188658022Y-65210566D02*
X188512879Y-65137995D01*
X188512879Y-65137995D02*
X188440308Y-65065423D01*
X188440308Y-65065423D02*
X188367736Y-64920280D01*
X188367736Y-64920280D02*
X188367736Y-63686566D01*
X187714594Y-65137995D02*
X187496880Y-65210566D01*
X187496880Y-65210566D02*
X187134022Y-65210566D01*
X187134022Y-65210566D02*
X186988880Y-65137995D01*
X186988880Y-65137995D02*
X186916308Y-65065423D01*
X186916308Y-65065423D02*
X186843737Y-64920280D01*
X186843737Y-64920280D02*
X186843737Y-64775137D01*
X186843737Y-64775137D02*
X186916308Y-64629995D01*
X186916308Y-64629995D02*
X186988880Y-64557423D01*
X186988880Y-64557423D02*
X187134022Y-64484852D01*
X187134022Y-64484852D02*
X187424308Y-64412280D01*
X187424308Y-64412280D02*
X187569451Y-64339709D01*
X187569451Y-64339709D02*
X187642022Y-64267137D01*
X187642022Y-64267137D02*
X187714594Y-64121995D01*
X187714594Y-64121995D02*
X187714594Y-63976852D01*
X187714594Y-63976852D02*
X187642022Y-63831709D01*
X187642022Y-63831709D02*
X187569451Y-63759137D01*
X187569451Y-63759137D02*
X187424308Y-63686566D01*
X187424308Y-63686566D02*
X187061451Y-63686566D01*
X187061451Y-63686566D02*
X186843737Y-63759137D01*
X189365594Y-78110137D02*
X189510737Y-78037566D01*
X189510737Y-78037566D02*
X189728451Y-78037566D01*
X189728451Y-78037566D02*
X189946165Y-78110137D01*
X189946165Y-78110137D02*
X190091308Y-78255280D01*
X190091308Y-78255280D02*
X190163879Y-78400423D01*
X190163879Y-78400423D02*
X190236451Y-78690709D01*
X190236451Y-78690709D02*
X190236451Y-78908423D01*
X190236451Y-78908423D02*
X190163879Y-79198709D01*
X190163879Y-79198709D02*
X190091308Y-79343852D01*
X190091308Y-79343852D02*
X189946165Y-79488995D01*
X189946165Y-79488995D02*
X189728451Y-79561566D01*
X189728451Y-79561566D02*
X189583308Y-79561566D01*
X189583308Y-79561566D02*
X189365594Y-79488995D01*
X189365594Y-79488995D02*
X189293022Y-79416423D01*
X189293022Y-79416423D02*
X189293022Y-78908423D01*
X189293022Y-78908423D02*
X189583308Y-78908423D01*
X187696451Y-78037566D02*
X186825594Y-78037566D01*
X187261022Y-79561566D02*
X187261022Y-78037566D01*
X186462736Y-79561566D02*
X185664451Y-78545566D01*
X186462736Y-78545566D02*
X185664451Y-79561566D01*
X183051879Y-79561566D02*
X183559879Y-78835852D01*
X183922736Y-79561566D02*
X183922736Y-78037566D01*
X183922736Y-78037566D02*
X183342165Y-78037566D01*
X183342165Y-78037566D02*
X183197022Y-78110137D01*
X183197022Y-78110137D02*
X183124451Y-78182709D01*
X183124451Y-78182709D02*
X183051879Y-78327852D01*
X183051879Y-78327852D02*
X183051879Y-78545566D01*
X183051879Y-78545566D02*
X183124451Y-78690709D01*
X183124451Y-78690709D02*
X183197022Y-78763280D01*
X183197022Y-78763280D02*
X183342165Y-78835852D01*
X183342165Y-78835852D02*
X183922736Y-78835852D01*
X182543879Y-79561566D02*
X181745594Y-78545566D01*
X182543879Y-78545566D02*
X181745594Y-79561566D01*
X180003879Y-79561566D02*
X180003879Y-78037566D01*
X180003879Y-78037566D02*
X179423308Y-78037566D01*
X179423308Y-78037566D02*
X179278165Y-78110137D01*
X179278165Y-78110137D02*
X179205594Y-78182709D01*
X179205594Y-78182709D02*
X179133022Y-78327852D01*
X179133022Y-78327852D02*
X179133022Y-78545566D01*
X179133022Y-78545566D02*
X179205594Y-78690709D01*
X179205594Y-78690709D02*
X179278165Y-78763280D01*
X179278165Y-78763280D02*
X179423308Y-78835852D01*
X179423308Y-78835852D02*
X180003879Y-78835852D01*
X178625022Y-78037566D02*
X178262165Y-79561566D01*
X178262165Y-79561566D02*
X177971879Y-78472995D01*
X177971879Y-78472995D02*
X177681594Y-79561566D01*
X177681594Y-79561566D02*
X177318737Y-78037566D01*
X175867308Y-79561566D02*
X176375308Y-78835852D01*
X176738165Y-79561566D02*
X176738165Y-78037566D01*
X176738165Y-78037566D02*
X176157594Y-78037566D01*
X176157594Y-78037566D02*
X176012451Y-78110137D01*
X176012451Y-78110137D02*
X175939880Y-78182709D01*
X175939880Y-78182709D02*
X175867308Y-78327852D01*
X175867308Y-78327852D02*
X175867308Y-78545566D01*
X175867308Y-78545566D02*
X175939880Y-78690709D01*
X175939880Y-78690709D02*
X176012451Y-78763280D01*
X176012451Y-78763280D02*
X176157594Y-78835852D01*
X176157594Y-78835852D02*
X176738165Y-78835852D01*
X169916451Y-53345137D02*
X169190737Y-53345137D01*
X170061594Y-53780566D02*
X169553594Y-52256566D01*
X169553594Y-52256566D02*
X169045594Y-53780566D01*
X168247308Y-52256566D02*
X168102165Y-52256566D01*
X168102165Y-52256566D02*
X167957022Y-52329137D01*
X167957022Y-52329137D02*
X167884451Y-52401709D01*
X167884451Y-52401709D02*
X167811879Y-52546852D01*
X167811879Y-52546852D02*
X167739308Y-52837137D01*
X167739308Y-52837137D02*
X167739308Y-53199995D01*
X167739308Y-53199995D02*
X167811879Y-53490280D01*
X167811879Y-53490280D02*
X167884451Y-53635423D01*
X167884451Y-53635423D02*
X167957022Y-53707995D01*
X167957022Y-53707995D02*
X168102165Y-53780566D01*
X168102165Y-53780566D02*
X168247308Y-53780566D01*
X168247308Y-53780566D02*
X168392451Y-53707995D01*
X168392451Y-53707995D02*
X168465022Y-53635423D01*
X168465022Y-53635423D02*
X168537593Y-53490280D01*
X168537593Y-53490280D02*
X168610165Y-53199995D01*
X168610165Y-53199995D02*
X168610165Y-52837137D01*
X168610165Y-52837137D02*
X168537593Y-52546852D01*
X168537593Y-52546852D02*
X168465022Y-52401709D01*
X168465022Y-52401709D02*
X168392451Y-52329137D01*
X168392451Y-52329137D02*
X168247308Y-52256566D01*
D12*
X158253458Y-74142011D02*
X157346316Y-74142011D01*
X158434887Y-74686297D02*
X157799887Y-72781297D01*
X157799887Y-72781297D02*
X157164887Y-74686297D01*
X156529887Y-74686297D02*
X156529887Y-73416297D01*
X156529887Y-73779154D02*
X156439173Y-73597725D01*
X156439173Y-73597725D02*
X156348459Y-73507011D01*
X156348459Y-73507011D02*
X156167030Y-73416297D01*
X156167030Y-73416297D02*
X155985601Y-73416297D01*
X154534173Y-74686297D02*
X154534173Y-72781297D01*
X154534173Y-74595583D02*
X154715601Y-74686297D01*
X154715601Y-74686297D02*
X155078458Y-74686297D01*
X155078458Y-74686297D02*
X155259887Y-74595583D01*
X155259887Y-74595583D02*
X155350601Y-74504868D01*
X155350601Y-74504868D02*
X155441315Y-74323440D01*
X155441315Y-74323440D02*
X155441315Y-73779154D01*
X155441315Y-73779154D02*
X155350601Y-73597725D01*
X155350601Y-73597725D02*
X155259887Y-73507011D01*
X155259887Y-73507011D02*
X155078458Y-73416297D01*
X155078458Y-73416297D02*
X154715601Y-73416297D01*
X154715601Y-73416297D02*
X154534173Y-73507011D01*
X152810602Y-73416297D02*
X152810602Y-74686297D01*
X153627030Y-73416297D02*
X153627030Y-74414154D01*
X153627030Y-74414154D02*
X153536316Y-74595583D01*
X153536316Y-74595583D02*
X153354887Y-74686297D01*
X153354887Y-74686297D02*
X153082744Y-74686297D01*
X153082744Y-74686297D02*
X152901316Y-74595583D01*
X152901316Y-74595583D02*
X152810602Y-74504868D01*
X151903459Y-74686297D02*
X151903459Y-73416297D01*
X151903459Y-72781297D02*
X151994173Y-72872011D01*
X151994173Y-72872011D02*
X151903459Y-72962725D01*
X151903459Y-72962725D02*
X151812745Y-72872011D01*
X151812745Y-72872011D02*
X151903459Y-72781297D01*
X151903459Y-72781297D02*
X151903459Y-72962725D01*
X150996316Y-73416297D02*
X150996316Y-74686297D01*
X150996316Y-73597725D02*
X150905602Y-73507011D01*
X150905602Y-73507011D02*
X150724173Y-73416297D01*
X150724173Y-73416297D02*
X150452030Y-73416297D01*
X150452030Y-73416297D02*
X150270602Y-73507011D01*
X150270602Y-73507011D02*
X150179888Y-73688440D01*
X150179888Y-73688440D02*
X150179888Y-74686297D01*
X149000602Y-74686297D02*
X149182031Y-74595583D01*
X149182031Y-74595583D02*
X149272745Y-74504868D01*
X149272745Y-74504868D02*
X149363459Y-74323440D01*
X149363459Y-74323440D02*
X149363459Y-73779154D01*
X149363459Y-73779154D02*
X149272745Y-73597725D01*
X149272745Y-73597725D02*
X149182031Y-73507011D01*
X149182031Y-73507011D02*
X149000602Y-73416297D01*
X149000602Y-73416297D02*
X148728459Y-73416297D01*
X148728459Y-73416297D02*
X148547031Y-73507011D01*
X148547031Y-73507011D02*
X148456317Y-73597725D01*
X148456317Y-73597725D02*
X148365602Y-73779154D01*
X148365602Y-73779154D02*
X148365602Y-74323440D01*
X148365602Y-74323440D02*
X148456317Y-74504868D01*
X148456317Y-74504868D02*
X148547031Y-74595583D01*
X148547031Y-74595583D02*
X148728459Y-74686297D01*
X148728459Y-74686297D02*
X149000602Y-74686297D01*
X146097745Y-74686297D02*
X146097745Y-72781297D01*
X146097745Y-72781297D02*
X145462745Y-74142011D01*
X145462745Y-74142011D02*
X144827745Y-72781297D01*
X144827745Y-72781297D02*
X144827745Y-74686297D01*
X143920602Y-74686297D02*
X143920602Y-72781297D01*
X142832031Y-74686297D02*
X143648459Y-73597725D01*
X142832031Y-72781297D02*
X143920602Y-73869868D01*
X140927031Y-74686297D02*
X141562031Y-73779154D01*
X142015602Y-74686297D02*
X142015602Y-72781297D01*
X142015602Y-72781297D02*
X141289888Y-72781297D01*
X141289888Y-72781297D02*
X141108459Y-72872011D01*
X141108459Y-72872011D02*
X141017745Y-72962725D01*
X141017745Y-72962725D02*
X140927031Y-73144154D01*
X140927031Y-73144154D02*
X140927031Y-73416297D01*
X140927031Y-73416297D02*
X141017745Y-73597725D01*
X141017745Y-73597725D02*
X141108459Y-73688440D01*
X141108459Y-73688440D02*
X141289888Y-73779154D01*
X141289888Y-73779154D02*
X142015602Y-73779154D01*
X138840602Y-72781297D02*
X137570602Y-72781297D01*
X137570602Y-72781297D02*
X138840602Y-74686297D01*
X138840602Y-74686297D02*
X137570602Y-74686297D01*
X136119173Y-74595583D02*
X136300601Y-74686297D01*
X136300601Y-74686297D02*
X136663459Y-74686297D01*
X136663459Y-74686297D02*
X136844887Y-74595583D01*
X136844887Y-74595583D02*
X136935601Y-74414154D01*
X136935601Y-74414154D02*
X136935601Y-73688440D01*
X136935601Y-73688440D02*
X136844887Y-73507011D01*
X136844887Y-73507011D02*
X136663459Y-73416297D01*
X136663459Y-73416297D02*
X136300601Y-73416297D01*
X136300601Y-73416297D02*
X136119173Y-73507011D01*
X136119173Y-73507011D02*
X136028459Y-73688440D01*
X136028459Y-73688440D02*
X136028459Y-73869868D01*
X136028459Y-73869868D02*
X136935601Y-74051297D01*
X135212030Y-74686297D02*
X135212030Y-73416297D01*
X135212030Y-73779154D02*
X135121316Y-73597725D01*
X135121316Y-73597725D02*
X135030602Y-73507011D01*
X135030602Y-73507011D02*
X134849173Y-73416297D01*
X134849173Y-73416297D02*
X134667744Y-73416297D01*
X133760601Y-74686297D02*
X133942030Y-74595583D01*
X133942030Y-74595583D02*
X134032744Y-74504868D01*
X134032744Y-74504868D02*
X134123458Y-74323440D01*
X134123458Y-74323440D02*
X134123458Y-73779154D01*
X134123458Y-73779154D02*
X134032744Y-73597725D01*
X134032744Y-73597725D02*
X133942030Y-73507011D01*
X133942030Y-73507011D02*
X133760601Y-73416297D01*
X133760601Y-73416297D02*
X133488458Y-73416297D01*
X133488458Y-73416297D02*
X133307030Y-73507011D01*
X133307030Y-73507011D02*
X133216316Y-73597725D01*
X133216316Y-73597725D02*
X133125601Y-73779154D01*
X133125601Y-73779154D02*
X133125601Y-74323440D01*
X133125601Y-74323440D02*
X133216316Y-74504868D01*
X133216316Y-74504868D02*
X133307030Y-74595583D01*
X133307030Y-74595583D02*
X133488458Y-74686297D01*
X133488458Y-74686297D02*
X133760601Y-74686297D01*
D10*
X182616451Y-64775137D02*
X181890737Y-64775137D01*
X182761594Y-65210566D02*
X182253594Y-63686566D01*
X182253594Y-63686566D02*
X181745594Y-65210566D01*
X180366736Y-65210566D02*
X180874736Y-64484852D01*
X181237593Y-65210566D02*
X181237593Y-63686566D01*
X181237593Y-63686566D02*
X180657022Y-63686566D01*
X180657022Y-63686566D02*
X180511879Y-63759137D01*
X180511879Y-63759137D02*
X180439308Y-63831709D01*
X180439308Y-63831709D02*
X180366736Y-63976852D01*
X180366736Y-63976852D02*
X180366736Y-64194566D01*
X180366736Y-64194566D02*
X180439308Y-64339709D01*
X180439308Y-64339709D02*
X180511879Y-64412280D01*
X180511879Y-64412280D02*
X180657022Y-64484852D01*
X180657022Y-64484852D02*
X181237593Y-64484852D01*
X179713593Y-65210566D02*
X179713593Y-63686566D01*
X179713593Y-63686566D02*
X179350736Y-63686566D01*
X179350736Y-63686566D02*
X179133022Y-63759137D01*
X179133022Y-63759137D02*
X178987879Y-63904280D01*
X178987879Y-63904280D02*
X178915308Y-64049423D01*
X178915308Y-64049423D02*
X178842736Y-64339709D01*
X178842736Y-64339709D02*
X178842736Y-64557423D01*
X178842736Y-64557423D02*
X178915308Y-64847709D01*
X178915308Y-64847709D02*
X178987879Y-64992852D01*
X178987879Y-64992852D02*
X179133022Y-65137995D01*
X179133022Y-65137995D02*
X179350736Y-65210566D01*
X179350736Y-65210566D02*
X179713593Y-65210566D01*
X178189593Y-63686566D02*
X178189593Y-64920280D01*
X178189593Y-64920280D02*
X178117022Y-65065423D01*
X178117022Y-65065423D02*
X178044451Y-65137995D01*
X178044451Y-65137995D02*
X177899308Y-65210566D01*
X177899308Y-65210566D02*
X177609022Y-65210566D01*
X177609022Y-65210566D02*
X177463879Y-65137995D01*
X177463879Y-65137995D02*
X177391308Y-65065423D01*
X177391308Y-65065423D02*
X177318736Y-64920280D01*
X177318736Y-64920280D02*
X177318736Y-63686566D01*
X188222594Y-74935137D02*
X188367737Y-74862566D01*
X188367737Y-74862566D02*
X188585451Y-74862566D01*
X188585451Y-74862566D02*
X188803165Y-74935137D01*
X188803165Y-74935137D02*
X188948308Y-75080280D01*
X188948308Y-75080280D02*
X189020879Y-75225423D01*
X189020879Y-75225423D02*
X189093451Y-75515709D01*
X189093451Y-75515709D02*
X189093451Y-75733423D01*
X189093451Y-75733423D02*
X189020879Y-76023709D01*
X189020879Y-76023709D02*
X188948308Y-76168852D01*
X188948308Y-76168852D02*
X188803165Y-76313995D01*
X188803165Y-76313995D02*
X188585451Y-76386566D01*
X188585451Y-76386566D02*
X188440308Y-76386566D01*
X188440308Y-76386566D02*
X188222594Y-76313995D01*
X188222594Y-76313995D02*
X188150022Y-76241423D01*
X188150022Y-76241423D02*
X188150022Y-75733423D01*
X188150022Y-75733423D02*
X188440308Y-75733423D01*
X187496879Y-76386566D02*
X187496879Y-74862566D01*
X187496879Y-74862566D02*
X186916308Y-74862566D01*
X186916308Y-74862566D02*
X186771165Y-74935137D01*
X186771165Y-74935137D02*
X186698594Y-75007709D01*
X186698594Y-75007709D02*
X186626022Y-75152852D01*
X186626022Y-75152852D02*
X186626022Y-75370566D01*
X186626022Y-75370566D02*
X186698594Y-75515709D01*
X186698594Y-75515709D02*
X186771165Y-75588280D01*
X186771165Y-75588280D02*
X186916308Y-75660852D01*
X186916308Y-75660852D02*
X187496879Y-75660852D01*
X186045451Y-76313995D02*
X185827737Y-76386566D01*
X185827737Y-76386566D02*
X185464879Y-76386566D01*
X185464879Y-76386566D02*
X185319737Y-76313995D01*
X185319737Y-76313995D02*
X185247165Y-76241423D01*
X185247165Y-76241423D02*
X185174594Y-76096280D01*
X185174594Y-76096280D02*
X185174594Y-75951137D01*
X185174594Y-75951137D02*
X185247165Y-75805995D01*
X185247165Y-75805995D02*
X185319737Y-75733423D01*
X185319737Y-75733423D02*
X185464879Y-75660852D01*
X185464879Y-75660852D02*
X185755165Y-75588280D01*
X185755165Y-75588280D02*
X185900308Y-75515709D01*
X185900308Y-75515709D02*
X185972879Y-75443137D01*
X185972879Y-75443137D02*
X186045451Y-75297995D01*
X186045451Y-75297995D02*
X186045451Y-75152852D01*
X186045451Y-75152852D02*
X185972879Y-75007709D01*
X185972879Y-75007709D02*
X185900308Y-74935137D01*
X185900308Y-74935137D02*
X185755165Y-74862566D01*
X185755165Y-74862566D02*
X185392308Y-74862566D01*
X185392308Y-74862566D02*
X185174594Y-74935137D01*
X183360307Y-74862566D02*
X183360307Y-76096280D01*
X183360307Y-76096280D02*
X183287736Y-76241423D01*
X183287736Y-76241423D02*
X183215165Y-76313995D01*
X183215165Y-76313995D02*
X183070022Y-76386566D01*
X183070022Y-76386566D02*
X182779736Y-76386566D01*
X182779736Y-76386566D02*
X182634593Y-76313995D01*
X182634593Y-76313995D02*
X182562022Y-76241423D01*
X182562022Y-76241423D02*
X182489450Y-76096280D01*
X182489450Y-76096280D02*
X182489450Y-74862566D01*
X181836308Y-75951137D02*
X181110594Y-75951137D01*
X181981451Y-76386566D02*
X181473451Y-74862566D01*
X181473451Y-74862566D02*
X180965451Y-76386566D01*
X179586593Y-76386566D02*
X180094593Y-75660852D01*
X180457450Y-76386566D02*
X180457450Y-74862566D01*
X180457450Y-74862566D02*
X179876879Y-74862566D01*
X179876879Y-74862566D02*
X179731736Y-74935137D01*
X179731736Y-74935137D02*
X179659165Y-75007709D01*
X179659165Y-75007709D02*
X179586593Y-75152852D01*
X179586593Y-75152852D02*
X179586593Y-75370566D01*
X179586593Y-75370566D02*
X179659165Y-75515709D01*
X179659165Y-75515709D02*
X179731736Y-75588280D01*
X179731736Y-75588280D02*
X179876879Y-75660852D01*
X179876879Y-75660852D02*
X180457450Y-75660852D01*
X179151165Y-74862566D02*
X178280308Y-74862566D01*
X178715736Y-76386566D02*
X178715736Y-74862566D01*
D13*
X177161819Y-81352666D02*
X177876104Y-81352666D01*
X177876104Y-81352666D02*
X178018961Y-81305047D01*
X178018961Y-81305047D02*
X178114200Y-81209809D01*
X178114200Y-81209809D02*
X178161819Y-81066952D01*
X178161819Y-81066952D02*
X178161819Y-80971714D01*
X177495152Y-82257428D02*
X178161819Y-82257428D01*
X177114200Y-82019333D02*
X177828485Y-81781238D01*
X177828485Y-81781238D02*
X177828485Y-82400285D01*
X179319819Y-60761666D02*
X180034104Y-60761666D01*
X180034104Y-60761666D02*
X180176961Y-60714047D01*
X180176961Y-60714047D02*
X180272200Y-60618809D01*
X180272200Y-60618809D02*
X180319819Y-60475952D01*
X180319819Y-60475952D02*
X180319819Y-60380714D01*
X180319819Y-61237857D02*
X179319819Y-61237857D01*
X179319819Y-61237857D02*
X179319819Y-61618809D01*
X179319819Y-61618809D02*
X179367438Y-61714047D01*
X179367438Y-61714047D02*
X179415057Y-61761666D01*
X179415057Y-61761666D02*
X179510295Y-61809285D01*
X179510295Y-61809285D02*
X179653152Y-61809285D01*
X179653152Y-61809285D02*
X179748390Y-61761666D01*
X179748390Y-61761666D02*
X179796009Y-61714047D01*
X179796009Y-61714047D02*
X179843628Y-61618809D01*
X179843628Y-61618809D02*
X179843628Y-61237857D01*
X180319819Y-62761666D02*
X180319819Y-62190238D01*
X180319819Y-62475952D02*
X179319819Y-62475952D01*
X179319819Y-62475952D02*
X179462676Y-62380714D01*
X179462676Y-62380714D02*
X179557914Y-62285476D01*
X179557914Y-62285476D02*
X179605533Y-62190238D01*
X164554819Y-55546666D02*
X165269104Y-55546666D01*
X165269104Y-55546666D02*
X165411961Y-55499047D01*
X165411961Y-55499047D02*
X165507200Y-55403809D01*
X165507200Y-55403809D02*
X165554819Y-55260952D01*
X165554819Y-55260952D02*
X165554819Y-55165714D01*
X164650057Y-55975238D02*
X164602438Y-56022857D01*
X164602438Y-56022857D02*
X164554819Y-56118095D01*
X164554819Y-56118095D02*
X164554819Y-56356190D01*
X164554819Y-56356190D02*
X164602438Y-56451428D01*
X164602438Y-56451428D02*
X164650057Y-56499047D01*
X164650057Y-56499047D02*
X164745295Y-56546666D01*
X164745295Y-56546666D02*
X164840533Y-56546666D01*
X164840533Y-56546666D02*
X164983390Y-56499047D01*
X164983390Y-56499047D02*
X165554819Y-55927619D01*
X165554819Y-55927619D02*
X165554819Y-56546666D01*
X213334599Y-87719819D02*
X213334599Y-87957914D01*
X213572694Y-87862676D02*
X213334599Y-87957914D01*
X213334599Y-87957914D02*
X213096504Y-87862676D01*
X213477456Y-88148390D02*
X213334599Y-87957914D01*
X213334599Y-87957914D02*
X213191742Y-88148390D01*
X213334600Y-88810180D02*
X213334600Y-88572085D01*
X213096505Y-88667323D02*
X213334600Y-88572085D01*
X213334600Y-88572085D02*
X213572695Y-88667323D01*
X213191743Y-88381609D02*
X213334600Y-88572085D01*
X213334600Y-88572085D02*
X213477457Y-88381609D01*
X170269085Y-60229104D02*
X169792895Y-60229104D01*
X170364323Y-60514819D02*
X170030990Y-59514819D01*
X170030990Y-59514819D02*
X169697657Y-60514819D01*
X168840514Y-60514819D02*
X169411942Y-60514819D01*
X169126228Y-60514819D02*
X169126228Y-59514819D01*
X169126228Y-59514819D02*
X169221466Y-59657676D01*
X169221466Y-59657676D02*
X169316704Y-59752914D01*
X169316704Y-59752914D02*
X169411942Y-59800533D01*
X134088094Y-82369819D02*
X134088094Y-81369819D01*
X134088094Y-81369819D02*
X133849999Y-81369819D01*
X133849999Y-81369819D02*
X133707142Y-81417438D01*
X133707142Y-81417438D02*
X133611904Y-81512676D01*
X133611904Y-81512676D02*
X133564285Y-81607914D01*
X133564285Y-81607914D02*
X133516666Y-81798390D01*
X133516666Y-81798390D02*
X133516666Y-81941247D01*
X133516666Y-81941247D02*
X133564285Y-82131723D01*
X133564285Y-82131723D02*
X133611904Y-82226961D01*
X133611904Y-82226961D02*
X133707142Y-82322200D01*
X133707142Y-82322200D02*
X133849999Y-82369819D01*
X133849999Y-82369819D02*
X134088094Y-82369819D01*
X132897618Y-81369819D02*
X132802380Y-81369819D01*
X132802380Y-81369819D02*
X132707142Y-81417438D01*
X132707142Y-81417438D02*
X132659523Y-81465057D01*
X132659523Y-81465057D02*
X132611904Y-81560295D01*
X132611904Y-81560295D02*
X132564285Y-81750771D01*
X132564285Y-81750771D02*
X132564285Y-81988866D01*
X132564285Y-81988866D02*
X132611904Y-82179342D01*
X132611904Y-82179342D02*
X132659523Y-82274580D01*
X132659523Y-82274580D02*
X132707142Y-82322200D01*
X132707142Y-82322200D02*
X132802380Y-82369819D01*
X132802380Y-82369819D02*
X132897618Y-82369819D01*
X132897618Y-82369819D02*
X132992856Y-82322200D01*
X132992856Y-82322200D02*
X133040475Y-82274580D01*
X133040475Y-82274580D02*
X133088094Y-82179342D01*
X133088094Y-82179342D02*
X133135713Y-81988866D01*
X133135713Y-81988866D02*
X133135713Y-81750771D01*
X133135713Y-81750771D02*
X133088094Y-81560295D01*
X133088094Y-81560295D02*
X133040475Y-81465057D01*
X133040475Y-81465057D02*
X132992856Y-81417438D01*
X132992856Y-81417438D02*
X132897618Y-81369819D01*
D14*
%TO.C,J4*%
X181747000Y-80356000D02*
X191967000Y-80356000D01*
X181747000Y-80356000D02*
X181747000Y-83016000D01*
X191967000Y-80356000D02*
X191967000Y-83016000D01*
X179147000Y-81686000D02*
X179147000Y-83016000D01*
X179147000Y-83016000D02*
X180477000Y-83016000D01*
X181747000Y-83016000D02*
X191967000Y-83016000D01*
D15*
%TO.C,J1*%
X213556901Y-91710000D02*
G75*
G02*
X212794901Y-91710000I-381000J0D01*
G01*
X212794901Y-91710000D02*
G75*
G02*
X213556901Y-91710000I381000J0D01*
G01*
D14*
%TO.C,JP1*%
X180865000Y-60215000D02*
X180865000Y-61595000D01*
X182245000Y-60215000D02*
X180865000Y-60215000D01*
X183515000Y-60215000D02*
X183515000Y-62975000D01*
X183515000Y-60215000D02*
X188705000Y-60215000D01*
X183515000Y-62975000D02*
X188705000Y-62975000D01*
X188705000Y-60215000D02*
X188705000Y-62975000D01*
%TO.C,J2*%
X167530000Y-54500000D02*
X167530000Y-55880000D01*
X168910000Y-54500000D02*
X167530000Y-54500000D01*
X170180000Y-54500000D02*
X170180000Y-57260000D01*
X170180000Y-54500000D02*
X182990000Y-54500000D01*
X170180000Y-57260000D02*
X182990000Y-57260000D01*
X182990000Y-54500000D02*
X182990000Y-57260000D01*
D10*
%TO.C,J3*%
X212001100Y-82550000D02*
X226758500Y-82550000D01*
X212001100Y-84300280D02*
X212001100Y-82550000D01*
X212001100Y-89916000D02*
X212001100Y-86794120D01*
X226758500Y-82550000D02*
X226758500Y-84300280D01*
X226758500Y-86794120D02*
X226758500Y-89916000D01*
X226758500Y-89916000D02*
X212001100Y-89916000D01*
D13*
%TO.C,A1*%
X114304800Y-83910000D02*
X114304800Y-63410000D01*
X173554800Y-61160000D02*
X116554800Y-61160000D01*
X173554800Y-86160000D02*
X116554800Y-86160000D01*
X175804800Y-83910000D02*
X175804800Y-63410000D01*
X114304800Y-63410000D02*
G75*
G02*
X116554800Y-61160000I2250000J0D01*
G01*
X116554800Y-86160000D02*
G75*
G02*
X114304800Y-83910000I0J2250000D01*
G01*
X173554800Y-61160000D02*
G75*
G02*
X175804800Y-63410000I0J-2250000D01*
G01*
X175804800Y-83910000D02*
G75*
G02*
X173554800Y-86160000I-2250000J0D01*
G01*
%TD*%
M02*
