  0
SECTION
  2
BLOCKS
  0
ENDSEC
  0
SECTION
  2
ENTITIES
  0
LINE
  8
0
 10
88.36
 20
28.035
 11
-88.36
 21
28.035
  0
LINE
  8
0
 10
-88.36
 20
28.035
 11
-88.36
 21
-28.035
  0
LINE
  8
0
 10
-88.36
 20
-28.035
 11
88.36
 21
-28.035
  0
LINE
  8
0
 10
88.36
 20
-28.035
 11
88.36
 21
28.035
  0
LINE
  8
0
 10
55.4
 20
-22.5
 11
55.4
 21
-16
  0
LINE
  8
0
 10
55.4
 20
-16
 11
42.7
 21
-16
  0
LINE
  8
0
 10
42.7
 20
-16
 11
42.7
 21
22
  0
LINE
  8
0
 10
42.7
 20
22
 11
60.7
 21
22
  0
LINE
  8
0
 10
60.7
 20
22
 11
60.7
 21
-15.896
  0
LINE
  8
0
 10
60.7
 20
-15.896
 11
67.4
 21
-15.896
  0
LINE
  8
0
 10
67.4
 20
-15.896
 11
67.4
 21
-22.5
  0
LINE
  8
0
 10
67.4
 20
-22.5
 11
55.4
 21
-22.5
  0
LINE
  8
0
 10
79.0033
 20
17.1816
 11
78.646
 21
17.29
  0
LINE
  8
0
 10
78.646
 20
17.29
 11
78.3166
 21
17.466
  0
LINE
  8
0
 10
78.3166
 20
17.466
 11
78.028
 21
17.703
  0
LINE
  8
0
 10
78.028
 20
17.703
 11
77.791
 21
17.9916
  0
LINE
  8
0
 10
77.791
 20
17.9916
 11
77.615
 21
18.321
  0
LINE
  8
0
 10
77.615
 20
18.321
 11
77.5066
 21
18.6783
  0
LINE
  8
0
 10
77.5066
 20
18.6783
 11
77.47
 21
19.05
  0
LINE
  8
0
 10
77.47
 20
19.05
 11
77.5066
 21
19.4216
  0
LINE
  8
0
 10
77.5066
 20
19.4216
 11
77.615
 21
19.779
  0
LINE
  8
0
 10
77.615
 20
19.779
 11
77.791
 21
20.1084
  0
LINE
  8
0
 10
77.791
 20
20.1084
 11
78.028
 21
20.397
  0
LINE
  8
0
 10
78.028
 20
20.397
 11
78.3166
 21
20.6339
  0
LINE
  8
0
 10
78.3166
 20
20.6339
 11
78.646
 21
20.81
  0
LINE
  8
0
 10
78.646
 20
20.81
 11
79.0033
 21
20.9184
  0
LINE
  8
0
 10
79.0033
 20
20.9184
 11
79.375
 21
20.955
  0
LINE
  8
0
 10
79.375
 20
20.955
 11
79.7466
 21
20.9184
  0
LINE
  8
0
 10
79.7466
 20
20.9184
 11
80.104
 21
20.81
  0
LINE
  8
0
 10
80.104
 20
20.81
 11
80.4334
 21
20.6339
  0
LINE
  8
0
 10
80.4334
 20
20.6339
 11
80.722
 21
20.397
  0
LINE
  8
0
 10
80.722
 20
20.397
 11
80.9589
 21
20.1084
  0
LINE
  8
0
 10
80.9589
 20
20.1084
 11
81.135
 21
19.779
  0
LINE
  8
0
 10
81.135
 20
19.779
 11
81.2434
 21
19.4216
  0
LINE
  8
0
 10
81.2434
 20
19.4216
 11
81.28
 21
19.05
  0
LINE
  8
0
 10
81.28
 20
19.05
 11
81.2434
 21
18.6783
  0
LINE
  8
0
 10
81.2434
 20
18.6783
 11
81.135
 21
18.321
  0
LINE
  8
0
 10
81.135
 20
18.321
 11
80.9589
 21
17.9916
  0
LINE
  8
0
 10
80.9589
 20
17.9916
 11
80.722
 21
17.703
  0
LINE
  8
0
 10
80.722
 20
17.703
 11
80.4334
 21
17.466
  0
LINE
  8
0
 10
80.4334
 20
17.466
 11
80.104
 21
17.29
  0
LINE
  8
0
 10
80.104
 20
17.29
 11
79.7466
 21
17.1816
  0
LINE
  8
0
 10
79.7466
 20
17.1816
 11
79.375
 21
17.145
  0
LINE
  8
0
 10
79.375
 20
17.145
 11
79.0033
 21
17.1816
  0
LINE
  8
0
 10
-79.7466
 20
17.1816
 11
-80.104
 21
17.29
  0
LINE
  8
0
 10
-80.104
 20
17.29
 11
-80.4334
 21
17.466
  0
LINE
  8
0
 10
-80.4334
 20
17.466
 11
-80.722
 21
17.703
  0
LINE
  8
0
 10
-80.722
 20
17.703
 11
-80.9589
 21
17.9916
  0
LINE
  8
0
 10
-80.9589
 20
17.9916
 11
-81.135
 21
18.321
  0
LINE
  8
0
 10
-81.135
 20
18.321
 11
-81.2434
 21
18.6783
  0
LINE
  8
0
 10
-81.2434
 20
18.6783
 11
-81.28
 21
19.05
  0
LINE
  8
0
 10
-81.28
 20
19.05
 11
-81.2434
 21
19.4216
  0
LINE
  8
0
 10
-81.2434
 20
19.4216
 11
-81.135
 21
19.779
  0
LINE
  8
0
 10
-81.135
 20
19.779
 11
-80.9589
 21
20.1084
  0
LINE
  8
0
 10
-80.9589
 20
20.1084
 11
-80.722
 21
20.397
  0
LINE
  8
0
 10
-80.722
 20
20.397
 11
-80.4334
 21
20.6339
  0
LINE
  8
0
 10
-80.4334
 20
20.6339
 11
-80.104
 21
20.81
  0
LINE
  8
0
 10
-80.104
 20
20.81
 11
-79.7466
 21
20.9184
  0
LINE
  8
0
 10
-79.7466
 20
20.9184
 11
-79.375
 21
20.955
  0
LINE
  8
0
 10
-79.375
 20
20.955
 11
-79.0033
 21
20.9184
  0
LINE
  8
0
 10
-79.0033
 20
20.9184
 11
-78.646
 21
20.81
  0
LINE
  8
0
 10
-78.646
 20
20.81
 11
-78.3166
 21
20.6339
  0
LINE
  8
0
 10
-78.3166
 20
20.6339
 11
-78.028
 21
20.397
  0
LINE
  8
0
 10
-78.028
 20
20.397
 11
-77.791
 21
20.1084
  0
LINE
  8
0
 10
-77.791
 20
20.1084
 11
-77.615
 21
19.779
  0
LINE
  8
0
 10
-77.615
 20
19.779
 11
-77.5066
 21
19.4216
  0
LINE
  8
0
 10
-77.5066
 20
19.4216
 11
-77.47
 21
19.05
  0
LINE
  8
0
 10
-77.47
 20
19.05
 11
-77.5066
 21
18.6783
  0
LINE
  8
0
 10
-77.5066
 20
18.6783
 11
-77.615
 21
18.321
  0
LINE
  8
0
 10
-77.615
 20
18.321
 11
-77.791
 21
17.9916
  0
LINE
  8
0
 10
-77.791
 20
17.9916
 11
-78.028
 21
17.703
  0
LINE
  8
0
 10
-78.028
 20
17.703
 11
-78.3166
 21
17.466
  0
LINE
  8
0
 10
-78.3166
 20
17.466
 11
-78.646
 21
17.29
  0
LINE
  8
0
 10
-78.646
 20
17.29
 11
-79.0033
 21
17.1816
  0
LINE
  8
0
 10
-79.0033
 20
17.1816
 11
-79.375
 21
17.145
  0
LINE
  8
0
 10
-79.375
 20
17.145
 11
-79.7466
 21
17.1816
  0
LINE
  8
0
 10
-66.9168
 20
19.6697
 11
-66.7551
 21
19.9722
  0
LINE
  8
0
 10
-66.7551
 20
19.9722
 11
-66.5374
 21
20.2374
  0
LINE
  8
0
 10
-66.5374
 20
20.2374
 11
-66.2722
 21
20.4551
  0
LINE
  8
0
 10
-66.2722
 20
20.4551
 11
-65.9697
 21
20.6168
  0
LINE
  8
0
 10
-65.9697
 20
20.6168
 11
-65.6414
 21
20.7164
  0
LINE
  8
0
 10
-65.6414
 20
20.7164
 11
-65.3
 21
20.75
  0
LINE
  8
0
 10
-65.3
 20
20.75
 11
-64.9586
 21
20.7164
  0
LINE
  8
0
 10
-64.9586
 20
20.7164
 11
-64.6303
 21
20.6168
  0
LINE
  8
0
 10
-64.6303
 20
20.6168
 11
-64.3277
 21
20.4551
  0
LINE
  8
0
 10
-64.3277
 20
20.4551
 11
-64.0626
 21
20.2374
  0
LINE
  8
0
 10
-64.0626
 20
20.2374
 11
-63.8449
 21
19.9722
  0
LINE
  8
0
 10
-63.8449
 20
19.9722
 11
-63.6832
 21
19.6697
  0
LINE
  8
0
 10
-63.6832
 20
19.6697
 11
-63.5836
 21
19.3414
  0
LINE
  8
0
 10
-63.5836
 20
19.3414
 11
-63.55
 21
19
  0
LINE
  8
0
 10
-63.55
 20
19
 11
-63.5836
 21
18.6586
  0
LINE
  8
0
 10
-63.5836
 20
18.6586
 11
-63.6832
 21
18.3303
  0
LINE
  8
0
 10
-63.6832
 20
18.3303
 11
-63.8449
 21
18.0277
  0
LINE
  8
0
 10
-63.8449
 20
18.0277
 11
-64.0626
 21
17.7626
  0
LINE
  8
0
 10
-64.0626
 20
17.7626
 11
-64.3277
 21
17.5449
  0
LINE
  8
0
 10
-64.3277
 20
17.5449
 11
-64.6303
 21
17.3832
  0
LINE
  8
0
 10
-64.6303
 20
17.3832
 11
-64.9586
 21
17.2836
  0
LINE
  8
0
 10
-64.9586
 20
17.2836
 11
-65.3
 21
17.25
  0
LINE
  8
0
 10
-65.3
 20
17.25
 11
-65.6414
 21
17.2836
  0
LINE
  8
0
 10
-65.6414
 20
17.2836
 11
-65.9697
 21
17.3832
  0
LINE
  8
0
 10
-65.9697
 20
17.3832
 11
-66.2722
 21
17.5449
  0
LINE
  8
0
 10
-66.2722
 20
17.5449
 11
-66.5374
 21
17.7626
  0
LINE
  8
0
 10
-66.5374
 20
17.7626
 11
-66.7551
 21
18.0277
  0
LINE
  8
0
 10
-66.7551
 20
18.0277
 11
-66.9168
 21
18.3303
  0
LINE
  8
0
 10
-66.9168
 20
18.3303
 11
-67.0164
 21
18.6586
  0
LINE
  8
0
 10
-67.0164
 20
18.6586
 11
-67.05
 21
19
  0
LINE
  8
0
 10
-67.05
 20
19
 11
-67.0164
 21
19.3414
  0
LINE
  8
0
 10
-67.0164
 20
19.3414
 11
-66.9168
 21
19.6697
  0
LINE
  8
0
 10
38.1121
 20
14.7305
 11
37.8143
 21
14.8208
  0
LINE
  8
0
 10
37.8143
 20
14.8208
 11
37.5398
 21
14.9675
  0
LINE
  8
0
 10
37.5398
 20
14.9675
 11
37.2993
 21
15.165
  0
LINE
  8
0
 10
37.2993
 20
15.165
 11
37.1018
 21
15.4055
  0
LINE
  8
0
 10
37.1018
 20
15.4055
 11
36.9551
 21
15.68
  0
LINE
  8
0
 10
36.9551
 20
15.68
 11
36.8648
 21
15.9778
  0
LINE
  8
0
 10
36.8648
 20
15.9778
 11
36.8343
 21
16.2875
  0
LINE
  8
0
 10
36.8343
 20
16.2875
 11
36.8648
 21
16.5972
  0
LINE
  8
0
 10
36.8648
 20
16.5972
 11
36.9551
 21
16.895
  0
LINE
  8
0
 10
36.9551
 20
16.895
 11
37.1018
 21
17.1695
  0
LINE
  8
0
 10
37.1018
 20
17.1695
 11
37.2993
 21
17.41
  0
LINE
  8
0
 10
37.2993
 20
17.41
 11
37.5398
 21
17.6075
  0
LINE
  8
0
 10
37.5398
 20
17.6075
 11
37.8143
 21
17.7542
  0
LINE
  8
0
 10
37.8143
 20
17.7542
 11
38.1121
 21
17.8445
  0
LINE
  8
0
 10
38.1121
 20
17.8445
 11
38.4218
 21
17.875
  0
LINE
  8
0
 10
38.4218
 20
17.875
 11
38.7315
 21
17.8445
  0
LINE
  8
0
 10
38.7315
 20
17.8445
 11
39.0293
 21
17.7542
  0
LINE
  8
0
 10
39.0293
 20
17.7542
 11
39.3038
 21
17.6075
  0
LINE
  8
0
 10
39.3038
 20
17.6075
 11
39.5443
 21
17.41
  0
LINE
  8
0
 10
39.5443
 20
17.41
 11
39.7417
 21
17.1695
  0
LINE
  8
0
 10
39.7417
 20
17.1695
 11
39.8885
 21
16.895
  0
LINE
  8
0
 10
39.8885
 20
16.895
 11
39.9788
 21
16.5972
  0
LINE
  8
0
 10
39.9788
 20
16.5972
 11
40.0093
 21
16.2875
  0
LINE
  8
0
 10
40.0093
 20
16.2875
 11
39.9788
 21
15.9778
  0
LINE
  8
0
 10
39.9788
 20
15.9778
 11
39.8885
 21
15.68
  0
LINE
  8
0
 10
39.8885
 20
15.68
 11
39.7417
 21
15.4055
  0
LINE
  8
0
 10
39.7417
 20
15.4055
 11
39.5443
 21
15.165
  0
LINE
  8
0
 10
39.5443
 20
15.165
 11
39.3038
 21
14.9675
  0
LINE
  8
0
 10
39.3038
 20
14.9675
 11
39.0293
 21
14.8208
  0
LINE
  8
0
 10
39.0293
 20
14.8208
 11
38.7315
 21
14.7305
  0
LINE
  8
0
 10
38.7315
 20
14.7305
 11
38.4218
 21
14.7
  0
LINE
  8
0
 10
38.4218
 20
14.7
 11
38.1121
 21
14.7305
  0
LINE
  8
0
 10
-56.7315
 20
14.7305
 11
-57.0293
 21
14.8208
  0
LINE
  8
0
 10
-57.0293
 20
14.8208
 11
-57.3038
 21
14.9675
  0
LINE
  8
0
 10
-57.3038
 20
14.9675
 11
-57.5443
 21
15.165
  0
LINE
  8
0
 10
-57.5443
 20
15.165
 11
-57.7418
 21
15.4055
  0
LINE
  8
0
 10
-57.7418
 20
15.4055
 11
-57.8885
 21
15.68
  0
LINE
  8
0
 10
-57.8885
 20
15.68
 11
-57.9788
 21
15.9778
  0
LINE
  8
0
 10
-57.9788
 20
15.9778
 11
-58.0093
 21
16.2875
  0
LINE
  8
0
 10
-58.0093
 20
16.2875
 11
-57.9788
 21
16.5972
  0
LINE
  8
0
 10
-57.9788
 20
16.5972
 11
-57.8885
 21
16.895
  0
LINE
  8
0
 10
-57.8885
 20
16.895
 11
-57.7418
 21
17.1695
  0
LINE
  8
0
 10
-57.7418
 20
17.1695
 11
-57.5443
 21
17.41
  0
LINE
  8
0
 10
-57.5443
 20
17.41
 11
-57.3038
 21
17.6075
  0
LINE
  8
0
 10
-57.3038
 20
17.6075
 11
-57.0293
 21
17.7542
  0
LINE
  8
0
 10
-57.0293
 20
17.7542
 11
-56.7315
 21
17.8445
  0
LINE
  8
0
 10
-56.7315
 20
17.8445
 11
-56.4218
 21
17.875
  0
LINE
  8
0
 10
-56.4218
 20
17.875
 11
-56.1121
 21
17.8445
  0
LINE
  8
0
 10
-56.1121
 20
17.8445
 11
-55.8143
 21
17.7542
  0
LINE
  8
0
 10
-55.8143
 20
17.7542
 11
-55.5398
 21
17.6075
  0
LINE
  8
0
 10
-55.5398
 20
17.6075
 11
-55.2993
 21
17.41
  0
LINE
  8
0
 10
-55.2993
 20
17.41
 11
-55.1018
 21
17.1695
  0
LINE
  8
0
 10
-55.1018
 20
17.1695
 11
-54.9551
 21
16.895
  0
LINE
  8
0
 10
-54.9551
 20
16.895
 11
-54.8648
 21
16.5972
  0
LINE
  8
0
 10
-54.8648
 20
16.5972
 11
-54.8343
 21
16.2875
  0
LINE
  8
0
 10
-54.8343
 20
16.2875
 11
-54.8648
 21
15.9778
  0
LINE
  8
0
 10
-54.8648
 20
15.9778
 11
-54.9551
 21
15.68
  0
LINE
  8
0
 10
-54.9551
 20
15.68
 11
-55.1018
 21
15.4055
  0
LINE
  8
0
 10
-55.1018
 20
15.4055
 11
-55.2993
 21
15.165
  0
LINE
  8
0
 10
-55.2993
 20
15.165
 11
-55.5398
 21
14.9675
  0
LINE
  8
0
 10
-55.5398
 20
14.9675
 11
-55.8143
 21
14.8208
  0
LINE
  8
0
 10
-55.8143
 20
14.8208
 11
-56.1121
 21
14.7305
  0
LINE
  8
0
 10
-56.1121
 20
14.7305
 11
-56.4218
 21
14.7
  0
LINE
  8
0
 10
-56.4218
 20
14.7
 11
-56.7315
 21
14.7305
  0
LINE
  8
0
 10
-53.9159
 20
-13.7948
 11
-53.9159
 21
17.7948
  0
LINE
  8
0
 10
-53.9159
 20
17.7948
 11
35.9159
 21
17.7948
  0
LINE
  8
0
 10
35.9159
 20
17.7948
 11
35.9159
 21
-13.7948
  0
LINE
  8
0
 10
35.9159
 20
-13.7948
 11
-53.9159
 21
-13.7948
  0
LINE
  8
0
 10
-72.9583
 20
-5.83667
 11
-74.5528
 21
-5.35297
  0
LINE
  8
0
 10
-74.5528
 20
-5.35297
 11
-76.0223
 21
-4.56749
  0
LINE
  8
0
 10
-76.0223
 20
-4.56749
 11
-77.3104
 21
-3.51041
  0
LINE
  8
0
 10
-77.3104
 20
-3.51041
 11
-78.3675
 21
-2.22234
  0
LINE
  8
0
 10
-78.3675
 20
-2.22234
 11
-79.153
 21
-0.752808
  0
LINE
  8
0
 10
-79.153
 20
-0.752808
 11
-79.6367
 21
0.841721
  0
LINE
  8
0
 10
-79.6367
 20
0.841721
 11
-79.8
 21
2.5
  0
LINE
  8
0
 10
-79.8
 20
2.5
 11
-79.6367
 21
4.15826
  0
LINE
  8
0
 10
-79.6367
 20
4.15826
 11
-79.153
 21
5.75281
  0
LINE
  8
0
 10
-79.153
 20
5.75281
 11
-78.3675
 21
7.22234
  0
LINE
  8
0
 10
-78.3675
 20
7.22234
 11
-77.3104
 21
8.51041
  0
LINE
  8
0
 10
-77.3104
 20
8.51041
 11
-76.0223
 21
9.56749
  0
LINE
  8
0
 10
-76.0223
 20
9.56749
 11
-74.5528
 21
10.353
  0
LINE
  8
0
 10
-74.5528
 20
10.353
 11
-72.9583
 21
10.8367
  0
LINE
  8
0
 10
-72.9583
 20
10.8367
 11
-71.3
 21
11
  0
LINE
  8
0
 10
-71.3
 20
11
 11
-69.6417
 21
10.8367
  0
LINE
  8
0
 10
-69.6417
 20
10.8367
 11
-68.0472
 21
10.353
  0
LINE
  8
0
 10
-68.0472
 20
10.353
 11
-66.5777
 21
9.56749
  0
LINE
  8
0
 10
-66.5777
 20
9.56749
 11
-65.2896
 21
8.51041
  0
LINE
  8
0
 10
-65.2896
 20
8.51041
 11
-64.2325
 21
7.22234
  0
LINE
  8
0
 10
-64.2325
 20
7.22234
 11
-63.447
 21
5.75281
  0
LINE
  8
0
 10
-63.447
 20
5.75281
 11
-62.9633
 21
4.15826
  0
LINE
  8
0
 10
-62.9633
 20
4.15826
 11
-62.8
 21
2.5
  0
LINE
  8
0
 10
-62.8
 20
2.5
 11
-62.9633
 21
0.841721
  0
LINE
  8
0
 10
-62.9633
 20
0.841721
 11
-63.447
 21
-0.752808
  0
LINE
  8
0
 10
-63.447
 20
-0.752808
 11
-64.2325
 21
-2.22234
  0
LINE
  8
0
 10
-64.2325
 20
-2.22234
 11
-65.2896
 21
-3.51041
  0
LINE
  8
0
 10
-65.2896
 20
-3.51041
 11
-66.5777
 21
-4.56749
  0
LINE
  8
0
 10
-66.5777
 20
-4.56749
 11
-68.0472
 21
-5.35297
  0
LINE
  8
0
 10
-68.0472
 20
-5.35297
 11
-69.6417
 21
-5.83667
  0
LINE
  8
0
 10
-69.6417
 20
-5.83667
 11
-71.3
 21
-6
  0
LINE
  8
0
 10
-71.3
 20
-6
 11
-72.9583
 21
-5.83667
  0
LINE
  8
0
 10
70.4758
 20
-10.2235
 11
69.8564
 21
-10.0356
  0
LINE
  8
0
 10
69.8564
 20
-10.0356
 11
69.2855
 21
-9.7305
  0
LINE
  8
0
 10
69.2855
 20
-9.7305
 11
68.7851
 21
-9.31985
  0
LINE
  8
0
 10
68.7851
 20
-9.31985
 11
68.3745
 21
-8.81949
  0
LINE
  8
0
 10
68.3745
 20
-8.81949
 11
68.0694
 21
-8.24861
  0
LINE
  8
0
 10
68.0694
 20
-8.24861
 11
67.8814
 21
-7.62918
  0
LINE
  8
0
 10
67.8814
 20
-7.62918
 11
67.818
 21
-6.98499
  0
LINE
  8
0
 10
67.818
 20
-6.98499
 11
67.8814
 21
-6.34081
  0
LINE
  8
0
 10
67.8814
 20
-6.34081
 11
68.0694
 21
-5.72137
  0
LINE
  8
0
 10
68.0694
 20
-5.72137
 11
68.3745
 21
-5.1505
  0
LINE
  8
0
 10
68.3745
 20
-5.1505
 11
68.7851
 21
-4.65013
  0
LINE
  8
0
 10
68.7851
 20
-4.65013
 11
69.2855
 21
-4.23949
  0
LINE
  8
0
 10
69.2855
 20
-4.23949
 11
69.8564
 21
-3.93434
  0
LINE
  8
0
 10
69.8564
 20
-3.93434
 11
70.4758
 21
-3.74644
  0
LINE
  8
0
 10
70.4758
 20
-3.74644
 11
71.12
 21
-3.683
  0
LINE
  8
0
 10
71.12
 20
-3.683
 11
71.7642
 21
-3.74644
  0
LINE
  8
0
 10
71.7642
 20
-3.74644
 11
72.3836
 21
-3.93434
  0
LINE
  8
0
 10
72.3836
 20
-3.93434
 11
72.9545
 21
-4.23949
  0
LINE
  8
0
 10
72.9545
 20
-4.23949
 11
73.4549
 21
-4.65013
  0
LINE
  8
0
 10
73.4549
 20
-4.65013
 11
73.8655
 21
-5.1505
  0
LINE
  8
0
 10
73.8655
 20
-5.1505
 11
74.1706
 21
-5.72137
  0
LINE
  8
0
 10
74.1706
 20
-5.72137
 11
74.3586
 21
-6.34081
  0
LINE
  8
0
 10
74.3586
 20
-6.34081
 11
74.422
 21
-6.98499
  0
LINE
  8
0
 10
74.422
 20
-6.98499
 11
74.3586
 21
-7.62918
  0
LINE
  8
0
 10
74.3586
 20
-7.62918
 11
74.1706
 21
-8.24861
  0
LINE
  8
0
 10
74.1706
 20
-8.24861
 11
73.8655
 21
-8.81949
  0
LINE
  8
0
 10
73.8655
 20
-8.81949
 11
73.4549
 21
-9.31985
  0
LINE
  8
0
 10
73.4549
 20
-9.31985
 11
72.9545
 21
-9.7305
  0
LINE
  8
0
 10
72.9545
 20
-9.7305
 11
72.3836
 21
-10.0356
  0
LINE
  8
0
 10
72.3836
 20
-10.0356
 11
71.7642
 21
-10.2235
  0
LINE
  8
0
 10
71.7642
 20
-10.2235
 11
71.12
 21
-10.287
  0
LINE
  8
0
 10
71.12
 20
-10.287
 11
70.4758
 21
-10.2235
  0
LINE
  8
0
 10
-56.7315
 20
-13.8445
 11
-57.0293
 21
-13.7542
  0
LINE
  8
0
 10
-57.0293
 20
-13.7542
 11
-57.3038
 21
-13.6075
  0
LINE
  8
0
 10
-57.3038
 20
-13.6075
 11
-57.5443
 21
-13.41
  0
LINE
  8
0
 10
-57.5443
 20
-13.41
 11
-57.7418
 21
-13.1695
  0
LINE
  8
0
 10
-57.7418
 20
-13.1695
 11
-57.8885
 21
-12.895
  0
LINE
  8
0
 10
-57.8885
 20
-12.895
 11
-57.9788
 21
-12.5972
  0
LINE
  8
0
 10
-57.9788
 20
-12.5972
 11
-58.0093
 21
-12.2875
  0
LINE
  8
0
 10
-58.0093
 20
-12.2875
 11
-57.9788
 21
-11.9778
  0
LINE
  8
0
 10
-57.9788
 20
-11.9778
 11
-57.8885
 21
-11.68
  0
LINE
  8
0
 10
-57.8885
 20
-11.68
 11
-57.7418
 21
-11.4055
  0
LINE
  8
0
 10
-57.7418
 20
-11.4055
 11
-57.5443
 21
-11.165
  0
LINE
  8
0
 10
-57.5443
 20
-11.165
 11
-57.3038
 21
-10.9675
  0
LINE
  8
0
 10
-57.3038
 20
-10.9675
 11
-57.0293
 21
-10.8208
  0
LINE
  8
0
 10
-57.0293
 20
-10.8208
 11
-56.7315
 21
-10.7305
  0
LINE
  8
0
 10
-56.7315
 20
-10.7305
 11
-56.4218
 21
-10.7
  0
LINE
  8
0
 10
-56.4218
 20
-10.7
 11
-56.1121
 21
-10.7305
  0
LINE
  8
0
 10
-56.1121
 20
-10.7305
 11
-55.8143
 21
-10.8208
  0
LINE
  8
0
 10
-55.8143
 20
-10.8208
 11
-55.5398
 21
-10.9675
  0
LINE
  8
0
 10
-55.5398
 20
-10.9675
 11
-55.2993
 21
-11.165
  0
LINE
  8
0
 10
-55.2993
 20
-11.165
 11
-55.1018
 21
-11.4055
  0
LINE
  8
0
 10
-55.1018
 20
-11.4055
 11
-54.9551
 21
-11.68
  0
LINE
  8
0
 10
-54.9551
 20
-11.68
 11
-54.8648
 21
-11.9778
  0
LINE
  8
0
 10
-54.8648
 20
-11.9778
 11
-54.8343
 21
-12.2875
  0
LINE
  8
0
 10
-54.8343
 20
-12.2875
 11
-54.8648
 21
-12.5972
  0
LINE
  8
0
 10
-54.8648
 20
-12.5972
 11
-54.9551
 21
-12.895
  0
LINE
  8
0
 10
-54.9551
 20
-12.895
 11
-55.1018
 21
-13.1695
  0
LINE
  8
0
 10
-55.1018
 20
-13.1695
 11
-55.2993
 21
-13.41
  0
LINE
  8
0
 10
-55.2993
 20
-13.41
 11
-55.5398
 21
-13.6075
  0
LINE
  8
0
 10
-55.5398
 20
-13.6075
 11
-55.8143
 21
-13.7542
  0
LINE
  8
0
 10
-55.8143
 20
-13.7542
 11
-56.1121
 21
-13.8445
  0
LINE
  8
0
 10
-56.1121
 20
-13.8445
 11
-56.4218
 21
-13.875
  0
LINE
  8
0
 10
-56.4218
 20
-13.875
 11
-56.7315
 21
-13.8445
  0
LINE
  8
0
 10
38.1121
 20
-13.8445
 11
37.8143
 21
-13.7542
  0
LINE
  8
0
 10
37.8143
 20
-13.7542
 11
37.5398
 21
-13.6075
  0
LINE
  8
0
 10
37.5398
 20
-13.6075
 11
37.2993
 21
-13.41
  0
LINE
  8
0
 10
37.2993
 20
-13.41
 11
37.1018
 21
-13.1695
  0
LINE
  8
0
 10
37.1018
 20
-13.1695
 11
36.9551
 21
-12.895
  0
LINE
  8
0
 10
36.9551
 20
-12.895
 11
36.8648
 21
-12.5972
  0
LINE
  8
0
 10
36.8648
 20
-12.5972
 11
36.8343
 21
-12.2875
  0
LINE
  8
0
 10
36.8343
 20
-12.2875
 11
36.8648
 21
-11.9778
  0
LINE
  8
0
 10
36.8648
 20
-11.9778
 11
36.9551
 21
-11.68
  0
LINE
  8
0
 10
36.9551
 20
-11.68
 11
37.1018
 21
-11.4055
  0
LINE
  8
0
 10
37.1018
 20
-11.4055
 11
37.2993
 21
-11.165
  0
LINE
  8
0
 10
37.2993
 20
-11.165
 11
37.5398
 21
-10.9675
  0
LINE
  8
0
 10
37.5398
 20
-10.9675
 11
37.8143
 21
-10.8208
  0
LINE
  8
0
 10
37.8143
 20
-10.8208
 11
38.1121
 21
-10.7305
  0
LINE
  8
0
 10
38.1121
 20
-10.7305
 11
38.4218
 21
-10.7
  0
LINE
  8
0
 10
38.4218
 20
-10.7
 11
38.7315
 21
-10.7305
  0
LINE
  8
0
 10
38.7315
 20
-10.7305
 11
39.0293
 21
-10.8208
  0
LINE
  8
0
 10
39.0293
 20
-10.8208
 11
39.3038
 21
-10.9675
  0
LINE
  8
0
 10
39.3038
 20
-10.9675
 11
39.5443
 21
-11.165
  0
LINE
  8
0
 10
39.5443
 20
-11.165
 11
39.7417
 21
-11.4055
  0
LINE
  8
0
 10
39.7417
 20
-11.4055
 11
39.8885
 21
-11.68
  0
LINE
  8
0
 10
39.8885
 20
-11.68
 11
39.9788
 21
-11.9778
  0
LINE
  8
0
 10
39.9788
 20
-11.9778
 11
40.0093
 21
-12.2875
  0
LINE
  8
0
 10
40.0093
 20
-12.2875
 11
39.9788
 21
-12.5972
  0
LINE
  8
0
 10
39.9788
 20
-12.5972
 11
39.8885
 21
-12.895
  0
LINE
  8
0
 10
39.8885
 20
-12.895
 11
39.7417
 21
-13.1695
  0
LINE
  8
0
 10
39.7417
 20
-13.1695
 11
39.5443
 21
-13.41
  0
LINE
  8
0
 10
39.5443
 20
-13.41
 11
39.3038
 21
-13.6075
  0
LINE
  8
0
 10
39.3038
 20
-13.6075
 11
39.0293
 21
-13.7542
  0
LINE
  8
0
 10
39.0293
 20
-13.7542
 11
38.7315
 21
-13.8445
  0
LINE
  8
0
 10
38.7315
 20
-13.8445
 11
38.4218
 21
-13.875
  0
LINE
  8
0
 10
38.4218
 20
-13.875
 11
38.1121
 21
-13.8445
  0
LINE
  8
0
 10
79.0033
 20
-20.9184
 11
78.646
 21
-20.81
  0
LINE
  8
0
 10
78.646
 20
-20.81
 11
78.3166
 21
-20.6339
  0
LINE
  8
0
 10
78.3166
 20
-20.6339
 11
78.028
 21
-20.397
  0
LINE
  8
0
 10
78.028
 20
-20.397
 11
77.791
 21
-20.1084
  0
LINE
  8
0
 10
77.791
 20
-20.1084
 11
77.615
 21
-19.779
  0
LINE
  8
0
 10
77.615
 20
-19.779
 11
77.5066
 21
-19.4216
  0
LINE
  8
0
 10
77.5066
 20
-19.4216
 11
77.47
 21
-19.05
  0
LINE
  8
0
 10
77.47
 20
-19.05
 11
77.5066
 21
-18.6783
  0
LINE
  8
0
 10
77.5066
 20
-18.6783
 11
77.615
 21
-18.321
  0
LINE
  8
0
 10
77.615
 20
-18.321
 11
77.791
 21
-17.9916
  0
LINE
  8
0
 10
77.791
 20
-17.9916
 11
78.028
 21
-17.703
  0
LINE
  8
0
 10
78.028
 20
-17.703
 11
78.3166
 21
-17.466
  0
LINE
  8
0
 10
78.3166
 20
-17.466
 11
78.646
 21
-17.29
  0
LINE
  8
0
 10
78.646
 20
-17.29
 11
79.0033
 21
-17.1816
  0
LINE
  8
0
 10
79.0033
 20
-17.1816
 11
79.375
 21
-17.145
  0
LINE
  8
0
 10
79.375
 20
-17.145
 11
79.7466
 21
-17.1816
  0
LINE
  8
0
 10
79.7466
 20
-17.1816
 11
80.104
 21
-17.29
  0
LINE
  8
0
 10
80.104
 20
-17.29
 11
80.4334
 21
-17.466
  0
LINE
  8
0
 10
80.4334
 20
-17.466
 11
80.722
 21
-17.703
  0
LINE
  8
0
 10
80.722
 20
-17.703
 11
80.9589
 21
-17.9916
  0
LINE
  8
0
 10
80.9589
 20
-17.9916
 11
81.135
 21
-18.321
  0
LINE
  8
0
 10
81.135
 20
-18.321
 11
81.2434
 21
-18.6783
  0
LINE
  8
0
 10
81.2434
 20
-18.6783
 11
81.28
 21
-19.05
  0
LINE
  8
0
 10
81.28
 20
-19.05
 11
81.2434
 21
-19.4216
  0
LINE
  8
0
 10
81.2434
 20
-19.4216
 11
81.135
 21
-19.779
  0
LINE
  8
0
 10
81.135
 20
-19.779
 11
80.9589
 21
-20.1084
  0
LINE
  8
0
 10
80.9589
 20
-20.1084
 11
80.722
 21
-20.397
  0
LINE
  8
0
 10
80.722
 20
-20.397
 11
80.4334
 21
-20.6339
  0
LINE
  8
0
 10
80.4334
 20
-20.6339
 11
80.104
 21
-20.81
  0
LINE
  8
0
 10
80.104
 20
-20.81
 11
79.7466
 21
-20.9184
  0
LINE
  8
0
 10
79.7466
 20
-20.9184
 11
79.375
 21
-20.955
  0
LINE
  8
0
 10
79.375
 20
-20.955
 11
79.0033
 21
-20.9184
  0
LINE
  8
0
 10
-79.7466
 20
-20.9184
 11
-80.104
 21
-20.81
  0
LINE
  8
0
 10
-80.104
 20
-20.81
 11
-80.4334
 21
-20.6339
  0
LINE
  8
0
 10
-80.4334
 20
-20.6339
 11
-80.722
 21
-20.397
  0
LINE
  8
0
 10
-80.722
 20
-20.397
 11
-80.9589
 21
-20.1084
  0
LINE
  8
0
 10
-80.9589
 20
-20.1084
 11
-81.135
 21
-19.779
  0
LINE
  8
0
 10
-81.135
 20
-19.779
 11
-81.2434
 21
-19.4216
  0
LINE
  8
0
 10
-81.2434
 20
-19.4216
 11
-81.28
 21
-19.05
  0
LINE
  8
0
 10
-81.28
 20
-19.05
 11
-81.2434
 21
-18.6783
  0
LINE
  8
0
 10
-81.2434
 20
-18.6783
 11
-81.135
 21
-18.321
  0
LINE
  8
0
 10
-81.135
 20
-18.321
 11
-80.9589
 21
-17.9916
  0
LINE
  8
0
 10
-80.9589
 20
-17.9916
 11
-80.722
 21
-17.703
  0
LINE
  8
0
 10
-80.722
 20
-17.703
 11
-80.4334
 21
-17.466
  0
LINE
  8
0
 10
-80.4334
 20
-17.466
 11
-80.104
 21
-17.29
  0
LINE
  8
0
 10
-80.104
 20
-17.29
 11
-79.7466
 21
-17.1816
  0
LINE
  8
0
 10
-79.7466
 20
-17.1816
 11
-79.375
 21
-17.145
  0
LINE
  8
0
 10
-79.375
 20
-17.145
 11
-79.0033
 21
-17.1816
  0
LINE
  8
0
 10
-79.0033
 20
-17.1816
 11
-78.646
 21
-17.29
  0
LINE
  8
0
 10
-78.646
 20
-17.29
 11
-78.3166
 21
-17.466
  0
LINE
  8
0
 10
-78.3166
 20
-17.466
 11
-78.028
 21
-17.703
  0
LINE
  8
0
 10
-78.028
 20
-17.703
 11
-77.791
 21
-17.9916
  0
LINE
  8
0
 10
-77.791
 20
-17.9916
 11
-77.615
 21
-18.321
  0
LINE
  8
0
 10
-77.615
 20
-18.321
 11
-77.5066
 21
-18.6783
  0
LINE
  8
0
 10
-77.5066
 20
-18.6783
 11
-77.47
 21
-19.05
  0
LINE
  8
0
 10
-77.47
 20
-19.05
 11
-77.5066
 21
-19.4216
  0
LINE
  8
0
 10
-77.5066
 20
-19.4216
 11
-77.615
 21
-19.779
  0
LINE
  8
0
 10
-77.615
 20
-19.779
 11
-77.791
 21
-20.1084
  0
LINE
  8
0
 10
-77.791
 20
-20.1084
 11
-78.028
 21
-20.397
  0
LINE
  8
0
 10
-78.028
 20
-20.397
 11
-78.3166
 21
-20.6339
  0
LINE
  8
0
 10
-78.3166
 20
-20.6339
 11
-78.646
 21
-20.81
  0
LINE
  8
0
 10
-78.646
 20
-20.81
 11
-79.0033
 21
-20.9184
  0
LINE
  8
0
 10
-79.0033
 20
-20.9184
 11
-79.375
 21
-20.955
  0
LINE
  8
0
 10
-79.375
 20
-20.955
 11
-79.7466
 21
-20.9184
  0
LINE
  8
0
 10
-70.6832
 20
18.3303
 11
-70.8449
 21
18.0277
  0
LINE
  8
0
 10
-70.8449
 20
18.0277
 11
-71.0626
 21
17.7626
  0
LINE
  8
0
 10
-71.0626
 20
17.7626
 11
-71.3277
 21
17.5449
  0
LINE
  8
0
 10
-71.3277
 20
17.5449
 11
-71.6303
 21
17.3832
  0
LINE
  8
0
 10
-71.6303
 20
17.3832
 11
-71.9586
 21
17.2836
  0
LINE
  8
0
 10
-71.9586
 20
17.2836
 11
-72.3
 21
17.25
  0
LINE
  8
0
 10
-72.3
 20
17.25
 11
-72.6414
 21
17.2836
  0
LINE
  8
0
 10
-72.6414
 20
17.2836
 11
-72.9697
 21
17.3832
  0
LINE
  8
0
 10
-72.9697
 20
17.3832
 11
-73.2722
 21
17.5449
  0
LINE
  8
0
 10
-73.2722
 20
17.5449
 11
-73.5374
 21
17.7626
  0
LINE
  8
0
 10
-73.5374
 20
17.7626
 11
-73.7551
 21
18.0277
  0
LINE
  8
0
 10
-73.7551
 20
18.0277
 11
-73.9168
 21
18.3303
  0
LINE
  8
0
 10
-73.9168
 20
18.3303
 11
-74.0164
 21
18.6586
  0
LINE
  8
0
 10
-74.0164
 20
18.6586
 11
-74.05
 21
19
  0
LINE
  8
0
 10
-74.05
 20
19
 11
-74.0164
 21
19.3414
  0
LINE
  8
0
 10
-74.0164
 20
19.3414
 11
-73.9168
 21
19.6697
  0
LINE
  8
0
 10
-73.9168
 20
19.6697
 11
-73.7551
 21
19.9722
  0
LINE
  8
0
 10
-73.7551
 20
19.9722
 11
-73.5374
 21
20.2374
  0
LINE
  8
0
 10
-73.5374
 20
20.2374
 11
-73.2722
 21
20.4551
  0
LINE
  8
0
 10
-73.2722
 20
20.4551
 11
-72.9697
 21
20.6168
  0
LINE
  8
0
 10
-72.9697
 20
20.6168
 11
-72.6414
 21
20.7164
  0
LINE
  8
0
 10
-72.6414
 20
20.7164
 11
-72.3
 21
20.75
  0
LINE
  8
0
 10
-72.3
 20
20.75
 11
-71.9586
 21
20.7164
  0
LINE
  8
0
 10
-71.9586
 20
20.7164
 11
-71.6303
 21
20.6168
  0
LINE
  8
0
 10
-71.6303
 20
20.6168
 11
-71.3277
 21
20.4551
  0
LINE
  8
0
 10
-71.3277
 20
20.4551
 11
-71.0626
 21
20.2374
  0
LINE
  8
0
 10
-71.0626
 20
20.2374
 11
-70.8449
 21
19.9722
  0
LINE
  8
0
 10
-70.8449
 20
19.9722
 11
-70.6832
 21
19.6697
  0
LINE
  8
0
 10
-70.6832
 20
19.6697
 11
-70.5836
 21
19.3414
  0
LINE
  8
0
 10
-70.5836
 20
19.3414
 11
-70.55
 21
19
  0
LINE
  8
0
 10
-70.55
 20
19
 11
-70.5836
 21
18.6586
  0
LINE
  8
0
 10
-70.5836
 20
18.6586
 11
-70.6832
 21
18.3303
  0
ENDSEC
  0
SECTION
  2
OBJECTS
  0
DICTIONARY
  0
ENDSEC
  0
EOF
